SplineFontDB: 1.0
FontName: Kinnari
FullName: Kinnari
FamilyName: Kinnari
Weight: Medium
Copyright: Kinnari by Db Type : Fontographer 3.5
Version: 001.000
ItalicAngle: 0
UnderlinePosition: -70
UnderlineWidth: 25
Ascent: 800
Descent: 200
NeedsXUIDChange: 1
FSType: 0
PfmFamily: 17
TTFWeight: 500
TTFWidth: 5
Panose: 0 0 0 0 0 0 0 0 0 0
LineGap: 90
VLineGap: 0
ScriptLang: 3
 1 DFLT 1 dflt 
 1 thai 1 dflt 
 1 latn 1 dflt 
TableOrder: GSUB 0
LangName: 1033 "" "" "" "TheOmegaProject(v.beta1).YannisHaralambous,VirachSornlertlamvanichandAnutaraTantraporn: Omega3: 1999" "" "" "" "NECTEC" "" "Yannis Haralambous, Virach Sornlertlamvanich and Anutara Tantraporn" "This font was developed under National Font Project at NECTEC as to be a free licensed font for Thai users and developers." 
Encoding: custom
UnicodeInterp: none
DisplaySize: -72
AntiAlias: 1
FitToEm: 1
WinInfo: 216 8 2
BeginPrivate: 6
BlueValues 30 [-9 0 291 299 431 440 444 449]
BlueScale 9 0.0454545
StdHW 4 [28]
StdVW 4 [28]
StemSnapH 7 [20 28]
StemSnapV 7 [20 28]
EndPrivate
BeginChars: 259 225
StartChar: Encoding:
Encoding: 0 -1 220
Width: 250
Flags: HW
HStem: 0 15<15 250> 370 15<0 235>
VStem: 0 15<0 370> 235 15<15 385>
Fore
15 370 m 1
 15 15 l 1
 235 15 l 1
 235 370 l 1
 15 370 l 1
250 0 m 1
 0 0 l 1
 0 385 l 1
 250 385 l 1
 250 0 l 1
EndSplineSet
EndChar
StartChar: exclam
Encoding: 33 33 1
Width: 217
Flags: HMW
HStem: -9 79 115 325<104 113 104 104>
VStem: 74 66
Fore
143 388 m 0
 143 388 l 0
 143 377 142 366 141 356 c 1
 113 115 l 1
 104 115 l 1
 76 356 l 1
 76 366 74 377 74 388 c 0
 74 409 81 440 109 440 c 0
 139 440 143 409 143 388 c 0
146 27 m 0
 146 6 128 -9 108 -9 c 0
 90 -9 71 7 71 27 c 0
 71 48 87 66 109 66 c 0
 130 66 146 48 146 27 c 0
EndSplineSet
EndChar
StartChar: quotedbl
Encoding: 34 34 2
Width: 265
Flags: HMW
HStem: 289 157
Fore
219 417 m 0
 198 289 l 1
 185 289 l 1
 163 417 l 1
 161 431 176 445 191 445 c 0
 207 445 222 431 219 417 c 0
102 417 m 1
 80 289 l 1
 67 289 l 1
 46 417 l 1
 43 431 58 445 74 445 c 0
 89 445 104 431 102 417 c 1
EndSplineSet
EndChar
StartChar: numbersign
Encoding: 35 35 3
Width: 325
Flags: HMW
HStem: 0 20 141 36 263 36<20 92 135 216 259 322> 411 20<117 155 155 155 241 278 278 278>
VStem: 20 302<263 299>
Fore
322 263 m 1
 254 263 l 1
 241 176 l 1
 306 176 l 1
 306 141 l 1
 235 141 l 1
 215 0 l 1
 177 0 l 1
 197 141 l 1
 110 141 l 1
 89 0 l 1
 51 0 l 1
 72 141 l 1
 3 141 l 1
 3 176 l 1
 78 176 l 1
 92 263 l 1
 20 263 l 1
 20 299 l 1
 97 299 l 1
 117 431 l 1
 155 431 l 1
 135 299 l 1
 221 299 l 1
 241 431 l 1
 278 431 l 1
 259 299 l 1
 322 299 l 1
 322 263 l 1
216 263 m 1
 130 263 l 1
 116 176 l 1
 203 176 l 1
 216 263 l 1
EndSplineSet
EndChar
StartChar: dollar
Encoding: 36 36 4
Width: 325
Flags: HW
HStem: 0 20 411 20<150 150 172 172>
VStem: 34 51 150 20 246 51<79 116>
Fore
297 116 m 0
 297 116 l 0
 297 42 239 5 172 0 c 1
 172 -57 l 1
 150 -57 l 1
 150 0 l 1
 107 0 65 11 29 33 c 1
 29 118 l 1
 39 118 l 1
 49 57 86 19 150 18 c 1
 150 202 l 1
 100 230 34 265 34 331 c 0
 34 397 91 429 150 431 c 1
 150 473 l 1
 172 473 l 1
 172 431 l 1
 209 430 247 420 276 397 c 1
 276 325 l 1
 267 325 l 1
 259 375 223 411 172 414 c 1
 172 254 l 1
 229 223 297 193 297 116 c 0
150 265 m 0
 150 414 l 0
 128 414 83 388 83 347 c 0
 83 304 120 287 150 265 c 0
246 99 m 0
 246 145 208 171 172 191 c 1
 172 18 l 1
 217 24 246 53 246 99 c 0
EndSplineSet
EndChar
StartChar: percent
Encoding: 37 37 5
Width: 542
Flags: HW
HStem: -9 20<356 403> 187 20 210 20 411 20<143.5 191>
VStem: 40 51 233 20 482 20<110 161 161 161>
Fore
412 440 m 1
 162 -9 l 1
 131 -9 l 1
 358 397 l 1
 319 381 271 376 245 386 c 1
 245 376 250 362 250 351 c 0
 250 263 174 187 117 187 c 0
 67 187 40 220 40 276 c 0
 40 346 107 431 180 431 c 0
 202 431 215 425 232 410 c 1
 249 397 263 395 284 395 c 0
 323 395 360 412 381 440 c 1
 412 440 l 1
502 161 m 0
 502 161 l 0
 502 59 431 -9 375 -9 c 0
 308 -9 292 31 292 80 c 0
 292 150 360 232 433 232 c 0
 477 232 502 195 502 161 c 0
233 360 m 0
 233 360 l 0
 233 371 230 380 228 390 c 1
 203 397 194 412 183 412 c 0
 159 412 89 347 89 258 c 0
 89 230 98 210 130 210 c 1
 193 216 233 297 233 360 c 0
485 157 m 0
 485 183 470 211 440 211 c 0
 405 211 381 175 367 146 c 0
 332 72 330 11 382 11 c 0
 443 11 485 105 485 157 c 0
EndSplineSet
EndChar
StartChar: ampersand
Encoding: 38 38 6
Width: 506
Flags: HMW
HStem: -9 36 264 13 420 20<202 254.5>
VStem: 28 59<90 131> 132 51<344.5 364.5> 287 32 321 141
Fore
488 65 m 1
 488 65 l 0
 457 17 434 -9 390 -9 c 0
 345 -9 309 20 279 51 c 1
 243 16 194 -9 143 -9 c 0
 70 -9 28 28 28 94 c 0
 28 168 106 221 154 245 c 1
 143 275 132 305 132 336 c 0
 132 393 173 440 231 440 c 0
 278 440 319 412 319 362 c 0
 319 304 266 270 219 250 c 1
 243 203 271 158 304 116 c 1
 327 143 364 197 364 233 c 0
 364 252 354 263 322 265 c 1
 322 277 l 1
 462 277 l 1
 462 265 l 1
 421 260 411 243 393 210 c 0
 369 167 332 113 321 96 c 1
 347 66 377 38 419 38 c 0
 445 38 464 52 478 72 c 1
 488 65 l 1
285 364 m 0
 285 364 l 0
 285 393 263 419 234 419 c 0
 195 419 183 390 183 357 c 0
 183 332 198 293 209 271 c 1
 245 288 285 321 285 364 c 0
263 68 m 1
 224 115 193 169 164 223 c 1
 120 196 87 167 87 112 c 0
 87 68 127 26 171 26 c 0
 198 26 236 44 263 68 c 1
EndSplineSet
EndChar
StartChar: quotesingle
Encoding: 39 39 7
Width: 117
Flags: HMW
HStem: 289 157
Fore
87 417 m 1
 65 289 l 1
 52 289 l 1
 31 417 l 1
 28 431 43 445 59 445 c 0
 74 445 89 431 87 417 c 1
EndSplineSet
EndChar
StartChar: parenleft
Encoding: 40 40 8
Width: 217
Flags: HW
HStem: 420 20<192 192>
VStem: 32 51
Fore
198 -105 m 1
 190 -115 l 1
 106 -59 32 31 32 169 c 0
 32 282 90 377 192 440 c 1
 198 429 l 1
 111 369 87 276 87 175 c 0
 87 68 100 -27 198 -105 c 1
EndSplineSet
EndChar
StartChar: parenright
Encoding: 41 41 9
Width: 217
Flags: HW
HStem: 420 20<27 27>
VStem: 134 51
Fore
185 151 m 0
 185 39 120 -59 25 -115 c 1
 19 -105 l 1
 107 -44 130 48 130 149 c 0
 130 258 115 362 19 429 c 1
 27 440 l 1
 53 427 185 334 185 151 c 0
EndSplineSet
EndChar
StartChar: asterisk
Encoding: 42 42 10
Width: 325
Flags: HMW
HStem: 424 20
VStem: 157 13
Fore
283 364 m 0
 291 338 263 324 249 327 c 1
 234 328 202 314 173 304 c 1
 204 288 234 278 263 273 c 0
 276 271 288 249 275 234 c 0
 257 214 230 232 225 246 c 0
 220 259 191 280 167 298 c 1
 165 261 172 230 180 202 c 0
 184 190 174 169 154 173 c 0
 128 178 130 210 139 222 c 0
 148 233 152 268 157 298 c 1
 124 278 102 257 83 235 c 0
 74 225 50 225 43 244 c 0
 35 269 63 284 78 281 c 0
 92 279 124 293 151 306 c 1
 120 325 90 334 61 340 c 0
 48 342 37 364 50 379 c 0
 67 399 94 381 99 367 c 0
 104 354 133 333 157 314 c 1
 157 356 150 386 140 414 c 0
 135 426 148 447 168 444 c 0
 194 438 193 406 183 395 c 0
 174 384 171 349 168 314 c 1
 202 329 224 351 243 373 c 1
 254 381 276 382 283 364 c 0
EndSplineSet
EndChar
StartChar: plus
Encoding: 43 43 11
Width: 367
Flags: HW
HStem: 153 44
VStem: 163 42
Fore
347 155 m 1
 204 155 l 1
 204 11 l 1
 163 11 l 1
 163 155 l 1
 20 155 l 1
 20 197 l 1
 163 197 l 1
 163 339 l 1
 204 339 l 1
 204 197 l 1
 347 197 l 1
 347 155 l 1
EndSplineSet
EndChar
StartChar: comma
Encoding: 44 44 12
Width: 163
Flags: HMW
HStem: 3 79<90.5 92.5>
VStem: 98 32
Fore
28 38 m 0
 28 65 44 82 72 82 c 0
 113 82 130 44 130 11 c 0
 130 -31 88 -77 48 -95 c 1
 39 -77 l 1
 65 -65 96 -27 96 -4 c 0
 96 0 97 3 93 3 c 0
 88 3 82 -3 69 -2 c 0
 47 -1 28 14 28 38 c 0
EndSplineSet
EndChar
StartChar: hyphen
Encoding: 45 45 13
Width: 217
Flags: HW
HStem: 155 36
VStem: 28 159
Fore
188 155 m 1
 28 155 l 1
 28 196 l 1
 188 196 l 1
 188 155 l 1
EndSplineSet
EndChar
StartChar: period
Encoding: 46 46 14
Width: 163
Flags: HW
HStem: -8 92
VStem: 35 96
Fore
35 39 m 0
 35 65 56 86 82 86 c 0
 108 86 129 65 129 39 c 0
 129 13 108 -8 82 -8 c 0
 56 -8 35 13 35 39 c 0
EndSplineSet
EndChar
StartChar: slash
Encoding: 47 47 15
Width: 181
Flags: HW
HStem: 424 20<156 197 197 197>
Fore
197 444 m 1
 33 -70 l 1
 -8 -70 l 1
 156 444 l 1
 197 444 l 1
EndSplineSet
EndChar
StartChar: zero
Encoding: 48 48 16
Width: 350
Flags: HW
HStem: -9 20 420 20<117 222>
VStem: 27 66 255 66
Fore
321 213 m 0
 321 213 l 0
 321 124 286 -9 170 -9 c 0
 78 -9 27 90 27 217 c 0
 27 310 61 440 173 440 c 0
 271 440 321 341 321 213 c 0
258 212 m 0
 258 328 239 423 177 423 c 0
 104 423 90 313 90 204 c 0
 90 107 105 9 175 9 c 0
 249 9 258 112 258 212 c 0
EndSplineSet
EndChar
StartChar: one
Encoding: 49 49 17
Width: 350
Flags: HW
HStem: 0 20 420 20<209 209>
VStem: 158 51
Fore
270 0 m 1
 92 0 l 1
 92 9 l 1
 144 12 153 24 153 52 c 2
 153 344 l 2
 153 395 133 386 86 368 c 1
 86 377 l 1
 209 440 l 1
 209 52 l 2
 209 24 218 12 270 9 c 1
 270 0 l 1
EndSplineSet
EndChar
StartChar: two
Encoding: 50 50 18
Width: 350
Flags: HW
HStem: 0 51 396 44
VStem: 240 51
Fore
324 89 m 1
 288 0 l 1
 35 0 l 1
 35 9 l 1
 145 125 l 2
 187 170 235 233 235 299 c 0
 235 356 199 393 142 393 c 0
 91 393 65 351 49 308 c 1
 35 312 l 1
 48 386 96 440 175 440 c 0
 239 440 291 390 291 326 c 0
 291 265 261 221 202 158 c 1
 98 50 l 1
 237 50 l 2
 285 50 290 52 316 93 c 1
 324 89 l 1
EndSplineSet
EndChar
StartChar: three
Encoding: 51 51 19
Width: 350
Flags: HMW
HStem: -9 20 404 36
VStem: 222 51<331.5 353>
Fore
295 139 m 0
 295 41 208 -9 119 -9 c 0
 94 -9 44 -7 44 28 c 0
 44 42 55 50 68 50 c 0
 100 50 122 14 161 14 c 0
 215 14 249 57 249 109 c 0
 249 182 210 215 115 215 c 1
 114 224 l 1
 163 239 222 269 222 332 c 0
 222 374 193 401 151 401 c 0
 108 401 78 377 54 333 c 1
 44 336 l 1
 65 401 110 440 172 440 c 0
 240 440 273 404 273 353 c 0
 273 310 245 282 213 262 c 1
 268 239 295 203 295 139 c 0
EndSplineSet
EndChar
StartChar: four
Encoding: 52 52 20
Width: 350
Flags: HW
HStem: 0 20 109 36 420 20<225 255 255 255>
VStem: 205 51
Fore
321 109 m 1
 255 109 l 1
 255 0 l 1
 205 0 l 1
 205 109 l 1
 22 109 l 1
 22 150 l 1
 225 440 l 1
 255 440 l 1
 255 150 l 1
 321 150 l 1
 321 109 l 1
205 150 m 1
 205 371 l 1
 48 150 l 1
 205 150 l 1
EndSplineSet
EndChar
StartChar: five
Encoding: 53 53 21
Width: 350
Flags: HW
HStem: -9 20 380 51
VStem: 250 42
Fore
300 443 m 1
 269 379 l 1
 133 379 l 1
 106 324 l 1
 209 307 292 278 292 148 c 0
 292 51 213 -9 117 -9 c 0
 91 -9 41 -7 36 26 c 0
 33 44 46 55 65 55 c 0
 106 55 121 14 156 14 c 0
 212 14 247 65 247 127 c 0
 247 229 147 263 65 268 c 0
 59 269 56 272 57 276 c 1
 128 431 l 1
 256 431 l 2
 276 431 281 431 294 447 c 1
 300 443 l 1
EndSplineSet
EndChar
StartChar: six
Encoding: 54 54 22
Width: 350
Flags: HW
HStem: -9 20 250 28 424 20<296.5 305>
VStem: 38 59
Fore
319 139 m 0
 319 139 l 0
 319 61 269 -9 186 -9 c 0
 104 -9 38 59 38 178 c 0
 38 319 135 420 267 439 c 0
 278 440 288 444 305 444 c 1
 306 432 l 1
 286 427 266 425 244 414 c 0
 186 387 127 337 114 249 c 1
 139 267 167 278 198 278 c 0
 274 278 319 225 319 139 c 0
259 147 m 0
 252 200 232 249 174 249 c 0
 152 249 128 241 111 228 c 0
 109 226 108 224 107 223 c 0
 99 206 98 184 98 161 c 0
 98 74 132 9 196 9 c 0
 245 9 268 70 259 147 c 0
EndSplineSet
EndChar
StartChar: seven
Encoding: 55 55 23
Width: 350
Flags: HW
HStem: -9 20 387 44
Fore
307 421 m 1
 168 -9 l 1
 126 -9 l 1
 256 382 l 1
 122 382 l 2
 74 382 64 370 39 330 c 1
 28 335 l 1
 67 431 l 1
 307 431 l 1
 307 421 l 1
EndSplineSet
EndChar
StartChar: eight
Encoding: 56 56 24
Width: 350
Flags: HW
HStem: -9 20 420 20<138 204>
VStem: 50 51 252 51
Fore
303 100 m 0
 303 100 l 0
 303 30 239 -9 173 -9 c 0
 109 -9 50 29 50 99 c 0
 50 154 95 187 134 216 c 1
 93 256 54 277 54 343 c 0
 54 388 98 440 178 440 c 0
 230 440 289 410 289 351 c 0
 289 294 247 265 202 242 c 1
 248 206 303 166 303 100 c 0
244 349 m 0
 244 349 l 0
 244 393 215 423 172 423 c 0
 134 423 102 398 102 358 c 0
 102 311 148 276 183 254 c 1
 218 273 244 307 244 349 c 0
253 82 m 0
 253 139 192 174 151 203 c 1
 149 201 146 200 144 197 c 1
 117 176 99 139 99 106 c 0
 99 51 126 7 183 7 c 0
 226 7 253 39 253 82 c 0
EndSplineSet
EndChar
StartChar: nine
Encoding: 57 57 25
Width: 350
Flags: HW
HStem: 154 28<144.5 168> 420 20<121.5 203>
VStem: 35 59
Fore
306 190 m 0
 306 190 l 0
 286 121 230 41 151 8 c 0
 114 -8 74 -15 54 -15 c 1
 52 -2 l 1
 92 5 152 23 195 81 c 0
 219 113 239 152 249 190 c 1
 215 167 184 154 152 154 c 0
 82 154 35 206 35 291 c 0
 35 345 69 440 174 440 c 0
 232 440 278 398 297 346 c 0
 314 299 321 243 306 190 c 0
251 269 m 0
 251 325 239 423 165 423 c 0
 108 423 95 355 95 310 c 0
 95 254 111 182 178 182 c 0
 199 182 236 197 249 215 c 1
 251 232 251 249 251 269 c 0
EndSplineSet
EndChar
StartChar: colon
Encoding: 58 58 26
Width: 181
Flags: HMW
HStem: -8 92 213 92
VStem: 44 96
Fore
44 258 m 0
 44 258 l 0
 44 284 65 305 91 305 c 0
 117 305 138 284 138 258 c 0
 138 232 117 211 91 211 c 0
 65 211 44 232 44 258 c 0
44 39 m 0
 44 65 65 86 91 86 c 0
 117 86 138 65 138 39 c 0
 138 13 117 -8 91 -8 c 0
 65 -8 44 13 44 39 c 0
EndSplineSet
EndChar
StartChar: semicolon
Encoding: 59 59 27
Width: 181
Flags: HMW
HStem: 3 79<100.5 104.5> 213 92
VStem: 108 32
Fore
38 38 m 0
 38 38 l 0
 38 65 54 82 82 82 c 0
 127 82 140 50 140 15 c 0
 140 -39 105 -73 58 -95 c 1
 49 -77 l 1
 75 -65 106 -29 106 -4 c 0
 106 0 107 3 103 3 c 0
 98 3 92 -3 79 -2 c 0
 57 -1 38 14 38 38 c 0
36 258 m 0
 36 284 57 305 83 305 c 0
 109 305 130 284 130 258 c 0
 130 232 109 211 83 211 c 0
 57 211 36 232 36 258 c 0
EndSplineSet
EndChar
StartChar: less
Encoding: 60 60 28
Width: 367
Flags: HW
HStem: 0 20
Fore
349 0 m 1
 18 152 l 1
 18 187 l 1
 349 340 l 1
 349 299 l 1
 70 170 l 1
 349 41 l 1
 349 0 l 1
EndSplineSet
EndChar
StartChar: equal
Encoding: 61 61 29
Width: 367
Flags: HW
HStem: 86 44 210 44
VStem: 20 327<86 128 212 254>
Fore
347 212 m 1
 20 212 l 1
 20 254 l 1
 347 254 l 1
 347 212 l 1
347 86 m 1
 20 86 l 1
 20 128 l 1
 347 128 l 1
 347 86 l 1
EndSplineSet
EndChar
StartChar: greater
Encoding: 62 62 30
Width: 367
Flags: HW
HStem: 0 20
Fore
349 152 m 1
 18 0 l 1
 18 41 l 1
 296 170 l 1
 18 299 l 1
 18 340 l 1
 349 187 l 1
 349 152 l 1
EndSplineSet
EndChar
StartChar: question
Encoding: 63 63 31
Width: 289
Flags: HMW
HStem: -9 79 420 20<114.5 178>
VStem: 32 59 103 74 198 59
Fore
257 337 m 0
 257 337 l 0
 257 295 232 262 208 231 c 2
 188 206 l 2
 165 176 152 145 146 107 c 1
 135 107 l 1
 135 208 197 251 197 336 c 0
 197 379 174 421 127 421 c 0
 102 421 57 404 67 373 c 1
 71 367 76 362 80 356 c 0
 87 347 90 343 90 332 c 0
 90 316 78 306 61 306 c 0
 38 306 32 331 32 349 c 0
 32 407 88 440 141 440 c 0
 215 440 257 388 257 337 c 0
178 28 m 0
 178 7 159 -9 141 -9 c 0
 122 -9 103 8 103 28 c 0
 103 48 122 66 141 66 c 0
 159 66 178 49 178 28 c 0
EndSplineSet
EndChar
StartChar: at
Encoding: 64 64 32
Width: 599
Flags: HW
HStem: -101 28 26 28<424 458.5> 280 28 419 20<226.5 367>
VStem: 36 66 182 59 537 28
Fore
565 215 m 0
 565 215 l 0
 565 112 495 26 429 26 c 0
 406 26 365 32 353 80 c 1
 331 47 289 27 261 27 c 0
 215 27 182 54 182 120 c 0
 182 215 258 308 332 308 c 0
 366 308 387 284 393 267 c 1
 401 299 l 1
 457 299 l 1
 404 94 l 2
 397 68 414 54 434 54 c 0
 483 54 539 139 539 214 c 0
 539 334 430 414 326 414 c 0
 187 414 98 274 98 162 c 0
 98 64 137 -75 322 -75 c 0
 385 -75 460 -51 496 -15 c 1
 484 -57 l 1
 484 -57 423 -101 321 -101 c 0
 189 -101 36 -25 36 167 c 0
 36 276 127 439 326 439 c 0
 408 439 565 384 565 215 c 0
379 224 m 0
 379 266 361 278 342 278 c 0
 307 278 242 222 242 114 c 0
 242 72 254 55 282 55 c 0
 305 55 333 83 340 96 c 0
 349 111 379 178 379 224 c 0
EndSplineSet
EndChar
StartChar: A
Encoding: 65 65 33
Width: 470
Flags: HW
HStem: 0 13<128 139> 141 28 420 20<226 239 239 239>
VStem: 291 168
Fore
459 0 m 1
 293 0 l 1
 293 13 l 1
 349 15 348 28 323 85 c 1
 300 141 l 1
 130 141 l 1
 121 116 94 64 94 40 c 0
 94 18 117 13 139 13 c 1
 139 0 l 1
 10 0 l 1
 10 13 l 1
 50 16 67 63 94 126 c 1
 226 440 l 1
 239 440 l 1
 397 76 l 1
 409 50 423 11 459 13 c 1
 459 0 l 1
291 167 m 1
 215 346 l 1
 141 167 l 1
 291 167 l 1
EndSplineSet
EndChar
StartChar: B
Encoding: 66 66 34
Width: 434
Flags: HW
HStem: 0 20 210 28 418 13<13 39.5>
VStem: 76 66<52 59 59 212 238 379 379 386> 300 66
Fore
388 119 m 0
 388 119 l 0
 388 41 320 0 218 0 c 2
 13 0 l 1
 13 13 l 1
 66 13 76 33 76 52 c 2
 76 379 l 2
 76 397 66 418 13 418 c 1
 13 431 l 1
 187 431 l 2
 288 431 366 404 366 321 c 0
 366 266 329 238 279 226 c 1
 335 215 388 181 388 119 c 0
299 319 m 0
 299 319 l 0
 299 368 268 395 223 403 c 1
 163 407 142 408 142 386 c 2
 142 238 l 1
 195 238 l 2
 261 238 299 266 299 319 c 0
313 120 m 0
 313 198 236 212 174 212 c 2
 142 212 l 1
 142 59 l 2
 142 36 148 24 195 24 c 0
 263 24 313 44 313 120 c 0
EndSplineSet
EndChar
StartChar: C
Encoding: 67 67 35
Width: 434
Flags: HW
HStem: -9 28 411 28
VStem: 22 74
Fore
414 72 m 1
 375 24 308 -9 245 -9 c 0
 119 -9 22 72 22 215 c 0
 22 344 113 440 244 440 c 0
 333 440 366 386 387 439 c 1
 401 439 l 1
 406 293 l 1
 391 293 l 1
 372 364 325 413 250 413 c 0
 143 413 97 327 97 210 c 0
 97 119 145 20 251 20 c 0
 315 20 358 41 403 85 c 1
 414 72 l 1
EndSplineSet
EndChar
StartChar: D
Encoding: 68 68 36
Width: 470
Flags: HW
HStem: 0 28 411 20<13 181 181 264>
VStem: 70 66 382 66
Fore
448 214 m 0
 448 214 l 0
 448 82 360 0 186 0 c 2
 13 0 l 1
 13 13 l 1
 61 13 70 33 70 52 c 2
 70 379 l 2
 70 397 61 418 13 418 c 1
 13 431 l 1
 181 431 l 2
 347 431 448 360 448 214 c 0
377 213 m 0
 377 341 294 406 174 406 c 0
 143 406 137 405 137 373 c 2
 137 59 l 2
 137 35 154 28 168 27 c 0
 301 21 377 93 377 213 c 0
EndSplineSet
EndChar
StartChar: E
Encoding: 69 69 37
Width: 397
Flags: HMW
HStem: 0 28 212 28 403 28
VStem: 65 66 304 13<149 174.5 275.5 301>
Fore
388 110 m 1
 359 0 l 1
 8 0 l 1
 8 13 l 1
 55 13 65 33 65 52 c 2
 65 379 l 2
 65 397 55 418 8 418 c 1
 8 431 l 1
 353 431 l 1
 353 338 l 1
 339 338 l 1
 332 373 310 404 265 404 c 2
 160 404 l 2
 144 404 132 395 132 379 c 2
 132 239 l 1
 223 239 l 2
 267 239 304 250 304 301 c 1
 317 301 l 1
 317 149 l 1
 304 149 l 1
 304 200 267 212 223 212 c 2
 132 212 l 1
 132 52 l 2
 132 41 135 27 148 27 c 2
 234 27 l 2
 286 27 336 28 370 110 c 1
 388 110 l 1
EndSplineSet
EndChar
StartChar: F
Encoding: 70 70 38
Width: 362
Flags: HMW
HStem: 0 13<8 31.5 165.5 190> 212 28 403 28
VStem: 65 66 299 13
Fore
354 338 m 1
 338 338 l 1
 330 409 291 404 245 404 c 2
 159 404 l 2
 137 404 132 394 132 379 c 2
 132 239 l 1
 217 239 l 2
 261 239 298 250 298 301 c 1
 312 301 l 1
 312 149 l 1
 298 149 l 1
 298 200 261 212 217 212 c 2
 132 212 l 1
 132 52 l 2
 132 33 141 13 190 13 c 1
 190 0 l 1
 8 0 l 1
 8 13 l 1
 55 13 65 33 65 52 c 2
 65 379 l 2
 65 397 55 418 8 418 c 1
 8 431 l 1
 354 431 l 1
 354 338 l 1
EndSplineSet
EndChar
StartChar: G
Encoding: 71 71 39
Width: 470
Flags: HW
HStem: -9 28 219 13<292 319 437 458> 412 28
VStem: 18 74 349 66
Fore
458 219 m 1
 416 219 412 198 412 161 c 2
 412 37 l 1
 375 16 302 -9 249 -9 c 0
 138 -9 18 61 18 214 c 0
 18 343 111 440 241 440 c 0
 320 440 371 392 387 440 c 1
 401 440 l 1
 406 302 l 1
 392 302 l 1
 367 371 324 414 247 414 c 0
 139 414 93 323 93 209 c 0
 93 109 148 18 257 18 c 0
 281 18 308 22 330 32 c 0
 349 41 349 45 349 64 c 2
 349 161 l 2
 349 198 346 219 292 219 c 1
 292 232 l 1
 458 232 l 1
 458 219 l 1
EndSplineSet
EndChar
StartChar: H
Encoding: 72 72 40
Width: 470
Flags: HW
HStem: 0 13<13 37 170 194 276 300 433.5 457> 206 28 418 13<13 37 170 194 276 300 433.5 457>
VStem: 70 66 334 66<52 207 207 207 234 379>
Fore
457 0 m 1
 276 0 l 1
 276 13 l 1
 324 13 334 33 334 52 c 2
 334 207 l 1
 137 207 l 1
 137 52 l 2
 137 33 146 13 194 13 c 1
 194 0 l 1
 13 0 l 1
 13 13 l 1
 61 13 70 33 70 52 c 2
 70 379 l 2
 70 397 61 418 13 418 c 1
 11 431 l 1
 194 431 l 1
 194 418 l 1
 146 418 137 397 137 379 c 2
 137 234 l 1
 334 234 l 1
 334 379 l 2
 334 397 324 418 276 418 c 1
 276 431 l 1
 457 431 l 1
 457 418 l 1
 410 418 400 397 400 379 c 2
 400 52 l 2
 400 33 410 13 457 13 c 1
 457 0 l 1
EndSplineSet
EndChar
StartChar: I
Encoding: 73 73 41
Width: 217
Flags: HW
HStem: 0 13<12 39 179 206> 418 13<12 39 179 206>
VStem: 76 66<52 379>
Fore
206 0 m 1
 12 0 l 1
 12 13 l 1
 66 13 76 33 76 52 c 2
 76 379 l 2
 76 397 66 418 12 418 c 1
 12 431 l 1
 206 431 l 1
 206 418 l 1
 152 418 142 397 142 379 c 2
 142 52 l 2
 142 33 152 13 206 13 c 1
 206 0 l 1
EndSplineSet
EndChar
StartChar: J
Encoding: 74 74 42
Width: 253
Flags: HW
HStem: -9 20 418 13<51 78 218 245>
VStem: 115 66<83 129 129 379>
Fore
245 418 m 1
 191 418 181 397 181 379 c 2
 181 129 l 2
 181 37 133 -9 73 -9 c 0
 54 -9 15 -2 9 29 c 2
 7 39 l 1
 7 54 20 70 38 70 c 0
 57 70 70 56 68 50 c 0
 64 37 74 16 88 16 c 0
 107 16 115 47 115 74 c 2
 115 379 l 2
 115 397 105 418 51 418 c 1
 51 431 l 1
 245 431 l 1
 245 418 l 1
EndSplineSet
EndChar
StartChar: K
Encoding: 75 75 43
Width: 470
Flags: HW
HStem: 0 13<13 37.5 172.5 197 263 287 438 461> 418 13<13 37.5 173 198 406 430>
VStem: 72 66<52 193 226 379> 262 168
Fore
461 0 m 1
 263 0 l 1
 263 13 l 1
 311 13 315 24 304 42 c 0
 286 73 243 119 218 144 c 2
 155 206 l 1
 138 193 l 1
 138 52 l 2
 138 33 148 13 197 13 c 1
 197 0 l 1
 13 0 l 1
 13 13 l 1
 62 13 72 33 72 52 c 2
 72 379 l 2
 72 397 62 418 13 418 c 1
 13 431 l 1
 198 431 l 1
 198 418 l 1
 148 418 138 397 138 379 c 2
 138 226 l 1
 165 252 304 366 304 396 c 0
 304 420 276 417 260 418 c 1
 260 431 l 1
 430 431 l 1
 430 418 l 1
 382 418 357 393 325 362 c 2
 208 245 l 1
 310 137 l 1
 354 89 l 2
 388 51 415 13 461 13 c 1
 461 0 l 1
EndSplineSet
EndChar
StartChar: L
Encoding: 76 76 44
Width: 397
Flags: HW
HStem: 0 28 418 13<8 31.5 165 189>
VStem: 65 66
Fore
389 113 m 1
 358 0 l 1
 8 0 l 1
 8 13 l 1
 55 13 65 33 65 52 c 2
 65 379 l 2
 65 397 55 418 8 418 c 1
 8 431 l 1
 189 431 l 1
 189 418 l 1
 141 418 132 397 132 379 c 2
 132 52 l 2
 132 34 156 27 197 27 c 0
 279 27 337 24 373 113 c 1
 389 113 l 1
EndSplineSet
EndChar
StartChar: M
Encoding: 77 77 45
Width: 578
Flags: HMW
HStem: 0 13<13 39.5 140.5 167 386 409.5 542.5 566> 418 13<14 40 542 566>
VStem: 76 32 443 66<52 370 370 370>
Fore
566 0 m 1
 386 0 l 1
 386 13 l 1
 433 13 443 33 443 52 c 2
 443 370 l 1
 276 0 l 1
 267 0 l 1
 104 355 l 1
 104 52 l 2
 104 33 114 13 167 13 c 1
 167 0 l 1
 13 0 l 1
 13 13 l 1
 66 13 76 33 76 52 c 2
 76 379 l 2
 76 397 66 418 14 418 c 1
 14 431 l 1
 143 431 l 1
 293 102 l 1
 436 431 l 1
 566 431 l 1
 566 418 l 1
 518 418 509 397 509 379 c 2
 509 52 l 2
 509 33 519 13 566 13 c 1
 566 0 l 1
EndSplineSet
EndChar
StartChar: N
Encoding: 78 78 46
Width: 470
Flags: HMW
HStem: 0 13<8 34.5 136 163> 418 13<8 24 306 333 434.5 461>
VStem: 71 32 366 32
Fore
461 418 m 1
 408 418 398 397 398 379 c 2
 398 -9 l 1
 388 -9 l 1
 100 349 l 1
 100 52 l 2
 100 33 109 13 163 13 c 1
 163 0 l 1
 8 0 l 1
 8 13 l 1
 61 13 71 33 71 52 c 2
 71 382 l 1
 66 389 l 1
 46 412 40 418 8 418 c 1
 8 431 l 1
 119 431 l 1
 369 118 l 1
 369 379 l 2
 369 397 360 418 306 418 c 1
 306 431 l 1
 461 431 l 1
 461 418 l 1
EndSplineSet
EndChar
StartChar: O
Encoding: 79 79 47
Width: 470
Flags: HW
HStem: -9 20 420 20
VStem: 22 74<148 277.5> 373 74
Fore
447 215 m 0
 447 215 l 0
 447 90 365 -9 235 -9 c 0
 120 -9 22 78 22 215 c 0
 22 345 108 442 235 440 c 1
 347 445 447 354 447 215 c 0
374 215 m 1
 374 317 336 418 235 416 c 1
 138 410 96 340 96 215 c 0
 96 81 158 9 235 15 c 0
 351 24 377 146 374 215 c 1
EndSplineSet
EndChar
StartChar: P
Encoding: 80 80 48
Width: 362
Flags: HW
HStem: 0 13<7 31 164.5 188> 188 20 411 20<11 174 174 224.5>
VStem: 65 66<52 191 215 377> 287 66
Fore
353 317 m 0
 353 317 l 0
 353 221 271 188 187 188 c 0
 169 188 150 189 131 191 c 1
 131 52 l 2
 131 33 141 13 188 13 c 1
 188 0 l 1
 7 0 l 1
 7 13 l 1
 55 13 65 33 65 52 c 2
 65 379 l 2
 65 397 55 418 11 418 c 1
 11 431 l 1
 174 431 l 2
 275 431 353 394 353 317 c 0
282 312 m 0
 282 386 222 406 159 406 c 0
 132 406 131 403 131 377 c 2
 131 215 l 1
 141 215 152 213 163 213 c 0
 233 213 282 237 282 312 c 0
EndSplineSet
EndChar
StartChar: Q
Encoding: 81 81 49
Width: 470
Flags: HMW
HStem: -115 13 -5 20<192.5 280> 420 20<168.5 300.5>
VStem: 22 74<170.5 278.5> 373 74
Fore
456 -115 m 1
 456 -115 l 0
 343 -115 265 -96 210 -42 c 0
 198 -31 185 -13 174 -5 c 1
 167 2 158 5 152 6 c 0
 67 29 22 126 22 215 c 0
 22 342 102 440 235 440 c 0
 366 440 447 341 447 215 c 0
 447 90 362 -2 276 -5 c 1
 323 -65 378 -102 456 -104 c 1
 456 -115 l 1
374 215 m 0
 374 344 319 416 235 416 c 0
 146 415 96 345 96 215 c 0
 96 87 150 15 235 15 c 0
 325 15 374 96 374 215 c 0
EndSplineSet
EndChar
StartChar: R
Encoding: 82 82 50
Width: 434
Flags: HW
HStem: 0 13<8 31 163 187> 411 20<8 180 180 234>
VStem: 63 66 287 66
Fore
425 0 m 1
 321 0 l 1
 166 200 l 1
 130 199 l 1
 130 52 l 2
 130 33 139 13 187 13 c 1
 187 0 l 1
 8 0 l 1
 8 13 l 1
 54 13 63 33 63 52 c 2
 63 379 l 2
 63 397 54 418 8 418 c 1
 8 431 l 1
 180 431 l 2
 288 431 353 393 353 317 c 0
 353 248 296 216 235 208 c 1
 364 49 l 2
 381 28 396 15 425 13 c 1
 425 0 l 1
282 316 m 0
 282 380 236 406 178 406 c 0
 135 406 130 406 130 375 c 2
 130 223 l 1
 224 226 282 246 282 316 c 0
EndSplineSet
EndChar
StartChar: S
Encoding: 83 83 51
Width: 362
Flags: HW
HStem: -9 20 412 28
VStem: 46 51
Fore
319 110 m 0
 319 52 271 -9 182 -9 c 0
 115 -9 68 39 61 -9 c 1
 47 -9 l 1
 28 131 l 1
 42 131 l 1
 63 70 108 16 177 16 c 0
 230 16 265 61 250 112 c 0
 224 203 46 207 46 331 c 0
 46 395 98 440 161 440 c 0
 230 440 262 392 277 440 c 1
 291 440 l 1
 305 301 l 1
 289 301 l 1
 274 362 231 413 171 413 c 0
 132 413 102 392 102 351 c 0
 102 313 143 286 171 269 c 0
 260 216 319 188 319 110 c 0
EndSplineSet
EndChar
StartChar: T
Encoding: 84 84 52
Width: 397
Flags: HMW
HStem: 0 13<108 132 265 289> 403 28<142 165 232 278 232 232>
VStem: 165 66
Fore
386 320 m 1
 371 320 l 1
 356 405 324 403 278 403 c 2
 232 403 l 1
 232 52 l 2
 232 33 241 13 289 13 c 1
 289 0 l 1
 108 0 l 1
 108 13 l 1
 156 13 165 33 165 52 c 2
 165 403 l 1
 119 403 68 406 49 379 c 1
 35 362 32 340 28 320 c 1
 12 320 l 1
 16 431 l 1
 382 431 l 1
 386 320 l 1
EndSplineSet
EndChar
StartChar: U
Encoding: 85 85 53
Width: 470
Flags: HW
HStem: -9 28 418 13<11 34.5 167.5 191 308 333.5 432.5 458>
VStem: 68 66<165 379> 365 32
Fore
458 418 m 1
 407 418 397 397 397 379 c 2
 397 174 l 2
 397 100 391 43 317 8 c 0
 297 -2 262 -9 234 -9 c 0
 116 -9 68 46 68 165 c 2
 68 379 l 2
 68 397 58 418 11 418 c 1
 11 431 l 1
 191 431 l 1
 191 418 l 1
 144 418 134 397 134 379 c 2
 134 160 l 2
 134 59 165 20 247 20 c 0
 368 20 369 112 369 174 c 2
 369 379 l 2
 369 397 359 418 308 418 c 1
 308 431 l 1
 458 431 l 1
 458 418 l 1
EndSplineSet
EndChar
StartChar: V
Encoding: 86 86 54
Width: 470
Flags: HW
HStem: -9 20 418 13<13 32 165.5 186 323 332 440.5 456>
VStem: 323 133<418 431>
Fore
456 418 m 1
 425 418 412 397 402 371 c 0
 354 256 287 85 251 -9 c 1
 243 -9 l 1
 85 343 l 1
 68 382 51 418 13 418 c 1
 13 431 l 1
 186 431 l 1
 186 418 l 1
 145 418 137 410 137 394 c 0
 137 380 161 330 167 317 c 2
 262 105 l 1
 354 336 l 1
 360 350 370 375 370 390 c 0
 370 415 341 418 323 418 c 1
 323 431 l 1
 456 431 l 1
 456 418 l 1
EndSplineSet
EndChar
StartChar: W
Encoding: 87 87 55
Width: 614
Flags: HW
HStem: -9 20 418 13<156 156 156 165 206 219 371 380>
VStem: 206 174<418 431> 476 133
Fore
609 418 m 1
 593 417 579 412 568 400 c 1
 562 391 558 381 555 371 c 1
 421 -9 l 1
 413 -9 l 1
 308 268 l 1
 208 -9 l 1
 199 -9 l 1
 99 273 l 1
 87 305 66 365 49 393 c 0
 39 410 25 416 6 418 c 1
 6 431 l 1
 165 431 l 1
 165 418 l 1
 156 418 l 2
 135 415 123 415 123 392 c 0
 123 386 131 366 133 360 c 2
 224 123 l 1
 293 306 l 1
 283 334 273 362 260 388 c 0
 249 412 232 418 206 418 c 1
 206 431 l 1
 380 431 l 1
 380 418 l 1
 362 418 330 418 330 398 c 0
 330 388 335 375 336 371 c 1
 433 121 l 1
 512 334 l 1
 523 366 527 393 521 403 c 0
 512 417 494 417 480 418 c 1
 480 431 l 1
 609 431 l 1
 609 418 l 1
EndSplineSet
EndChar
StartChar: X
Encoding: 88 88 56
Width: 470
Flags: HW
HStem: 0 13<8 26.5 139.5 159 266 289 444 459> 418 13<191.5 212 299 306 430.5 454>
VStem: 8 151<0 13> 299 159
Fore
459 0 m 1
 266 0 l 1
 266 13 l 1
 312 13 322 22 313 45 c 0
 308 60 288 89 278 103 c 2
 221 187 l 1
 149 97 l 2
 137 83 122 65 113 49 c 0
 104 31 120 13 159 13 c 1
 159 0 l 1
 8 0 l 1
 8 13 l 1
 45 13 73 50 107 93 c 2
 204 212 l 1
 138 310 l 2
 84 389 63 416 16 418 c 1
 16 431 l 1
 212 431 l 1
 212 418 l 1
 171 418 163 413 163 398 c 0
 163 378 211 311 223 295 c 2
 246 263 l 1
 314 347 l 2
 323 358 345 380 345 397 c 0
 345 418 313 418 299 418 c 1
 299 431 l 1
 454 431 l 1
 454 418 l 1
 407 418 371 375 352 351 c 2
 262 239 l 1
 382 67 l 1
 412 26 429 13 459 13 c 1
 459 0 l 1
EndSplineSet
EndChar
StartChar: Y
Encoding: 89 89 57
Width: 470
Flags: HW
HStem: 0 13<139 167 309 337> 418 13<179.5 197 315 332>
VStem: 205 66<52 191 191 191> 316 141
Fore
457 418 m 1
 412 412 382 367 363 338 c 2
 271 197 l 1
 271 52 l 2
 271 33 281 13 337 13 c 1
 337 0 l 1
 139 0 l 1
 139 13 l 1
 195 13 205 33 205 52 c 2
 205 191 l 1
 124 310 l 2
 80 374 61 417 15 418 c 1
 15 431 l 1
 197 431 l 1
 197 418 l 1
 162 418 150 414 150 400 c 0
 150 386 158 375 166 364 c 2
 258 226 l 1
 347 366 l 2
 354 378 364 392 358 406 c 0
 354 414 349 418 315 418 c 1
 315 431 l 1
 457 431 l 1
 457 418 l 1
EndSplineSet
EndChar
StartChar: Z
Encoding: 90 90 58
Width: 397
Flags: HW
HStem: 0 20 411 20<33 377 377 377>
Fore
388 115 m 1
 373 0 l 1
 5 0 l 1
 5 8 l 1
 290 406 l 1
 154 406 l 2
 87 406 49 394 37 319 c 1
 20 319 l 1
 33 431 l 1
 377 431 l 1
 377 423 l 1
 94 25 l 1
 254 25 l 2
 325 25 354 43 373 115 c 1
 388 115 l 1
EndSplineSet
EndChar
StartChar: bracketleft
Encoding: 91 91 59
Width: 217
Flags: HW
HStem: -102 20 411 20<57 195 195 195>
VStem: 57 51
Fore
195 -102 m 1
 57 -102 l 1
 57 431 l 1
 195 431 l 1
 195 414 l 1
 144 414 l 2
 114 414 107 407 107 378 c 2
 107 -44 l 2
 107 -78 115 -85 146 -85 c 2
 195 -85 l 1
 195 -102 l 1
EndSplineSet
EndChar
StartChar: backslash
Encoding: 92 92 60
Width: 181
Flags: HW
HStem: 0 20 424 20<-54 -7 -7 -7>
Fore
235 0 m 1
 188 0 l 1
 -54 444 l 1
 -7 444 l 1
 235 0 l 1
EndSplineSet
EndChar
StartChar: bracketright
Encoding: 93 93 61
Width: 217
Flags: HW
HStem: -102 20 411 20<22 159 159 159>
VStem: 108 51
Fore
159 -102 m 1
 22 -102 l 1
 22 -85 l 1
 67 -85 l 2
 106 -84 110 -79 110 -41 c 2
 110 362 l 2
 110 397 111 414 80 414 c 2
 22 414 l 1
 22 431 l 1
 159 431 l 1
 159 -102 l 1
EndSplineSet
EndChar
StartChar: asciicircum
Encoding: 94 94 62
Width: 305
Flags: HW
HStem: 411 20<132 174 174 174>
Fore
297 167 m 1
 249 167 l 1
 153 386 l 1
 56 167 l 1
 9 167 l 1
 132 431 l 1
 174 431 l 1
 297 167 l 1
EndSplineSet
EndChar
StartChar: underscore
Encoding: 95 95 63
Width: 325
Flags: HW
HStem: -113 36
VStem: 0 325<-113 -75>
Fore
325 -113 m 1
 0 -113 l 1
 0 -75 l 1
 325 -75 l 1
 325 -113 l 1
EndSplineSet
EndChar
StartChar: grave
Encoding: 96 96 64
Width: 217
Flags: HW
Fore
158 330 m 1
 132 330 l 1
 39 389 l 2
 28 395 11 406 11 417 c 0
 11 432 18 441 31 441 c 0
 42 441 60 432 68 420 c 1
 158 330 l 1
EndSplineSet
EndChar
StartChar: a
Encoding: 97 97 65
Width: 289
Flags: HW
HStem: -7 36 278 20<126 182>
VStem: 24 59 188 51
Fore
288 28 m 1
 288 28 l 0
 278 16 252 -7 234 -7 c 0
 200 -7 188 18 187 43 c 1
 158 16 121 -7 93 -7 c 0
 54 -7 24 24 24 62 c 0
 24 140 129 167 184 189 c 1
 184 258 178 283 137 283 c 0
 124 283 101 277 94 265 c 1
 91 257 94 244 94 227 c 0
 94 212 80 198 65 198 c 0
 35 198 29 224 43 249 c 0
 65 288 106 298 146 298 c 0
 218 298 239 267 239 187 c 2
 239 50 l 2
 239 26 256 23 288 45 c 1
 288 28 l 1
184 61 m 1
 184 172 l 1
 143 155 81 144 81 85 c 0
 81 57 96 32 127 32 c 0
 140 32 178 46 184 61 c 1
EndSplineSet
EndChar
StartChar: b
Encoding: 98 98 66
Width: 325
Flags: HW
HStem: -7 20 262 36 424 20<104 104>
VStem: 48 51 249 59
Fore
308 158 m 0
 308 158 l 0
 308 73 247 -7 158 -7 c 0
 121 -7 83 3 56 24 c 0
 51 28 48 35 48 44 c 2
 48 364 l 2
 48 409 41 403 6 403 c 1
 6 415 l 1
 29 421 46 424 63 430 c 2
 104 444 l 1
 104 246 l 1
 122 280 158 298 196 298 c 0
 271 298 308 224 308 158 c 0
251 130 m 0
 251 182 234 258 168 258 c 0
 120 258 104 230 104 201 c 2
 104 55 l 1
 102 33 109 32 128 23 c 0
 139 18 156 15 167 15 c 0
 232 15 251 76 251 130 c 0
EndSplineSet
EndChar
StartChar: c
Encoding: 99 99 67
Width: 289
Flags: HW
HStem: -7 44 278 20<113.5 180.5>
VStem: 16 51<136 181.5> 200 59<227 234>
Fore
268 97 m 1
 241 41 205 -7 138 -7 c 0
 68 -7 16 59 16 139 c 0
 16 224 65 298 162 298 c 0
 199 298 256 278 259 234 c 0
 259 219 245 206 230 206 c 0
 215 206 200 220 200 234 c 0
 200 260 185 279 150 279 c 0
 94 279 67 220 67 166 c 0
 67 106 100 39 167 39 c 0
 210 39 237 69 259 102 c 1
 268 97 l 1
EndSplineSet
EndChar
StartChar: d
Encoding: 100 100 68
Width: 325
Flags: HW
HStem: -7 28 278 20<126 170.5> 424 20<276 276>
VStem: 17 51 221 51
Fore
319 29 m 1
 319 29 l 0
 288 20 255 8 221 -9 c 1
 221 39 l 1
 204 13 171 -7 138 -7 c 0
 57 -7 17 64 17 137 c 0
 17 213 70 298 154 298 c 0
 187 298 212 282 221 272 c 1
 221 364 l 2
 221 408 217 403 178 403 c 1
 178 415 l 1
 202 421 219 424 235 430 c 2
 276 444 l 1
 276 59 l 2
 276 35 299 39 319 39 c 1
 319 29 l 1
221 76 m 2
 221 195 l 2
 221 242 200 278 153 278 c 0
 99 278 73 217 73 157 c 0
 73 72 111 25 163 25 c 0
 200 25 221 54 221 76 c 2
EndSplineSet
EndChar
StartChar: e
Encoding: 101 101 69
Width: 289
Flags: HW
HStem: -7 44<128 170.5> 180 20<61 195> 278 20<107 182>
VStem: 15 42 196 66
Fore
274 103 m 1
 274 103 l 0
 254 44 203 -7 138 -7 c 0
 63 -7 15 62 15 139 c 0
 15 232 67 298 147 298 c 0
 217 298 260 247 262 180 c 1
 59 180 l 1
 60 118 91 37 165 37 c 0
 208 37 243 71 263 107 c 1
 274 103 l 1
195 200 m 1
 193 238 176 275 133 275 c 0
 87 275 67 241 61 200 c 1
 195 200 l 1
EndSplineSet
EndChar
StartChar: f
Encoding: 102 102 70
Width: 217
Flags: HMW
HStem: 0 20 271 20<14 67 122 201> 377 67
VStem: 67 51
Fore
249 406 m 1
 249 392 239 377 224 377 c 0
 189 377 197 410 173 422 c 0
 165 426 155 427 147 423 c 1
 120 416 122 382 122 360 c 2
 122 291 l 1
 201 291 l 1
 201 271 l 1
 122 271 l 1
 122 52 l 2
 122 24 132 12 182 9 c 1
 182 0 l 1
 13 0 l 1
 13 9 l 1
 57 12 67 24 67 52 c 2
 67 271 l 1
 14 271 l 1
 14 291 l 1
 67 291 l 1
 67 314 68 334 72 354 c 0
 83 405 124 444 178 444 c 0
 204 444 234 439 249 406 c 1
EndSplineSet
EndChar
StartChar: g
Encoding: 103 103 71
Width: 325
Flags: HW
HStem: -141 36<122.5 160.5> -9 51 93 20<139.5 184.5> 278 20<128 187>
VStem: 45 51 213 51 280 20<-69 6>
Fore
306 251 m 1
 252 251 l 0
 261 232 264 210 264 195 c 0
 264 133 216 96 159 96 c 0
 148 96 137 98 124 100 c 1
 111 97 83 70 87 55 c 1
 96 42 132 42 145 41 c 0
 232 37 300 44 300 -32 c 0
 300 -106 191 -141 130 -141 c 0
 55 -141 18 -100 18 -74 c 0
 18 -48 48 -30 82 1 c 1
 68 7 48 16 48 35 c 0
 48 61 80 87 106 106 c 1
 68 122 45 150 45 193 c 0
 45 257 97 298 159 298 c 0
 215 298 221 265 306 276 c 1
 306 251 l 1
214 177 m 0
 214 177 l 0
 214 213 194 280 150 280 c 0
 111 280 99 250 99 218 c 0
 99 177 113 113 166 113 c 0
 203 113 214 145 214 177 c 0
282 -44 m 0
 282 -11 237 -10 194 -9 c 0
 165 -9 126 -8 96 -2 c 1
 83 -16 64 -38 64 -59 c 0
 64 -82 89 -105 156 -105 c 0
 233 -105 282 -81 282 -44 c 0
EndSplineSet
EndChar
StartChar: h
Encoding: 104 104 72
Width: 325
Flags: HW
HStem: 0 20 262 36 424 20<102 102>
VStem: 47 51 223 51
Fore
319 0 m 1
 182 0 l 1
 182 9 l 1
 213 12 223 24 223 52 c 2
 223 187 l 2
 223 225 220 263 173 263 c 0
 137 263 121 245 102 224 c 1
 102 52 l 2
 102 24 112 12 143 9 c 1
 143 0 l 1
 6 0 l 1
 6 9 l 1
 37 12 47 24 47 52 c 2
 47 364 l 2
 47 406 41 404 6 403 c 1
 6 415 l 1
 28 421 45 424 61 430 c 2
 102 444 l 1
 102 246 l 1
 124 275 157 298 196 298 c 0
 262 298 278 260 278 188 c 2
 278 52 l 2
 278 24 288 12 319 9 c 1
 319 0 l 1
EndSplineSet
EndChar
StartChar: i
Encoding: 105 105 73
Width: 181
Flags: HW
HStem: 0 20 377 67<77.5 96>
VStem: 69 51
Fore
120 410 m 0
 120 410 l 0
 120 392 105 377 87 377 c 0
 68 377 54 392 54 410 c 0
 54 429 68 444 87 444 c 0
 105 444 120 429 120 410 c 0
169 0 m 1
 15 0 l 1
 15 9 l 1
 54 12 64 24 64 52 c 2
 64 210 l 2
 64 261 56 265 15 254 c 1
 15 263 l 1
 119 298 l 1
 119 52 l 2
 119 24 129 12 169 9 c 1
 169 0 l 1
EndSplineSet
EndChar
StartChar: j
Encoding: 106 106 74
Width: 181
Flags: HW
HStem: 377 67<96 114>
VStem: 79 51
Fore
138 410 m 0
 138 410 l 0
 138 392 123 377 105 377 c 0
 87 377 72 392 72 410 c 0
 72 429 87 444 105 444 c 0
 123 444 138 429 138 410 c 0
134 8 m 2
 134 -91 96 -141 23 -141 c 0
 5 -141 -16 -135 -28 -124 c 1
 -41 -109 -37 -87 -23 -81 c 0
 -10 -74 3 -77 11 -86 c 0
 18 -96 26 -109 45 -118 c 0
 72 -130 79 -87 79 -61 c 2
 79 223 l 2
 79 258 70 260 31 254 c 1
 31 263 l 1
 134 298 l 1
 134 8 l 2
EndSplineSet
EndChar
StartChar: k
Encoding: 107 107 75
Width: 325
Flags: HW
HStem: 0 20 424 20<105 105>
VStem: 50 51 176 133<282 291>
Fore
325 0 m 1
 184 0 l 1
 184 9 l 1
 215 9 208 26 202 33 c 2
 105 161 l 1
 105 52 l 2
 105 24 115 12 154 9 c 1
 154 0 l 1
 1 0 l 1
 1 9 l 1
 40 12 50 24 50 52 c 2
 50 377 l 2
 50 407 43 405 7 403 c 1
 7 415 l 1
 31 421 48 424 64 430 c 2
 105 444 l 1
 105 171 l 1
 187 243 l 2
 195 250 203 258 209 267 c 1
 211 278 203 282 176 282 c 1
 176 291 l 1
 309 291 l 1
 309 282 l 1
 242 282 209 236 150 184 c 1
 244 64 l 2
 264 38 291 11 325 9 c 1
 325 0 l 1
EndSplineSet
EndChar
StartChar: l
Encoding: 108 108 76
Width: 181
Flags: HW
HStem: 0 20 424 20<119 119>
VStem: 63 51
Fore
169 0 m 1
 13 0 l 1
 13 9 l 1
 54 12 63 24 63 52 c 2
 63 364 l 2
 63 412 58 406 13 406 c 1
 13 415 l 1
 44 421 90 433 119 444 c 1
 119 52 l 2
 119 24 128 12 169 9 c 1
 169 0 l 1
EndSplineSet
EndChar
StartChar: m
Encoding: 109 109 77
Width: 506
Flags: HW
HStem: 0 20 262 36
VStem: 50 51 225 51 401 51
Fore
497 0 m 1
 360 0 l 1
 360 9 l 1
 391 12 401 24 401 52 c 2
 401 184 l 2
 401 247 391 263 350 263 c 0
 320 263 295 248 280 224 c 1
 280 52 l 2
 280 24 290 12 321 9 c 1
 321 0 l 1
 184 0 l 1
 184 9 l 1
 215 12 225 24 225 52 c 2
 225 187 l 1
 226 221 223 263 180 263 c 0
 153 263 120 248 105 225 c 1
 105 52 l 2
 105 24 115 12 146 9 c 1
 146 0 l 1
 9 0 l 1
 9 9 l 1
 40 12 50 24 50 52 c 2
 50 210 l 1
 52 246 42 253 9 253 c 1
 9 264 l 1
 105 298 l 1
 105 255 l 2
 105 239 118 260 128 267 c 0
 150 284 177 298 206 298 c 0
 239 298 265 274 273 243 c 1
 297 270 337 298 374 298 c 0
 451 298 456 232 456 174 c 2
 456 52 l 2
 456 24 466 12 497 9 c 1
 497 0 l 1
EndSplineSet
EndChar
StartChar: n
Encoding: 110 110 78
Width: 325
Flags: HW
HStem: 0 20 262 36
VStem: 47 51 223 51
Fore
319 0 m 1
 182 0 l 1
 182 9 l 1
 213 12 223 24 223 52 c 2
 223 192 l 2
 223 230 219 263 173 263 c 0
 142 263 119 243 102 226 c 1
 102 52 l 2
 102 24 112 12 143 9 c 1
 143 0 l 1
 6 0 l 1
 6 9 l 1
 37 12 47 24 47 52 c 2
 47 211 l 2
 47 261 41 260 6 258 c 1
 6 267 l 1
 102 298 l 1
 102 246 l 1
 126 271 156 298 202 298 c 0
 252 298 278 263 278 193 c 2
 278 52 l 2
 278 24 288 12 319 9 c 1
 319 0 l 1
EndSplineSet
EndChar
StartChar: o
Encoding: 111 111 79
Width: 325
Flags: HW
HStem: -7 20<141 197.5> 278 20<128 189>
VStem: 20 59 247 59
Fore
306 155 m 0
 306 155 l 0
 306 70 250 -7 160 -7 c 0
 77 -7 20 63 20 142 c 0
 20 228 70 298 160 298 c 0
 246 298 306 240 306 155 c 0
246 124 m 0
 246 183 226 278 152 278 c 0
 104 278 80 234 80 177 c 0
 79 85 110 13 172 13 c 0
 223 13 246 68 246 124 c 0
EndSplineSet
EndChar
StartChar: p
Encoding: 112 112 80
Width: 325
Flags: HW
HStem: -7 20 262 36<180 202>
VStem: 49 51 255 51
Fore
306 158 m 0
 306 158 l 0
 306 71 249 -7 165 -7 c 0
 142 -7 119 6 104 23 c 1
 104 -89 l 2
 104 -118 114 -130 158 -132 c 1
 158 -141 l 1
 2 -141 l 1
 2 -132 l 1
 39 -130 49 -118 49 -89 c 2
 49 213 l 2
 49 250 49 263 2 258 c 1
 2 267 l 1
 104 298 l 1
 104 258 l 1
 103 243 106 255 121 269 c 0
 139 286 161 298 199 298 c 0
 271 298 306 234 306 158 c 0
250 132 m 0
 250 185 236 262 168 262 c 0
 149 262 130 253 117 240 c 1
 104 229 104 226 104 211 c 2
 104 67 l 2
 104 48 113 39 129 28 c 0
 141 20 156 15 171 15 c 0
 218 15 250 67 250 132 c 0
EndSplineSet
EndChar
StartChar: q
Encoding: 113 113 81
Width: 325
Flags: HW
HStem: -7 36 278 20<118.5 176>
VStem: 16 51 225 51
Fore
324 -141 m 1
 167 -141 l 1
 167 -132 l 1
 211 -130 221 -118 221 -89 c 2
 221 39 l 1
 193 15 162 -7 126 -7 c 0
 41 -7 16 72 16 139 c 0
 16 223 74 298 163 298 c 0
 189 298 213 291 234 277 c 1
 265 297 l 2
 276 303 276 293 276 286 c 2
 276 -89 l 2
 276 -118 286 -130 324 -132 c 1
 324 -141 l 1
221 91 m 2
 221 210 l 2
 221 241 223 260 191 276 c 0
 179 281 172 282 159 282 c 0
 95 282 72 213 72 159 c 0
 72 87 100 33 152 33 c 0
 172 33 195 40 211 53 c 0
 224 65 221 74 221 91 c 2
EndSplineSet
EndChar
StartChar: r
Encoding: 114 114 82
Width: 217
Flags: HW
HStem: 0 20 262 36
VStem: 52 51
Fore
217 255 m 0
 215 241 204 235 191 235 c 0
 168 235 163 258 147 258 c 0
 134 258 107 226 107 207 c 2
 107 52 l 2
 107 24 117 12 156 9 c 1
 156 0 l 1
 3 0 l 1
 3 9 l 1
 42 12 52 24 52 52 c 2
 52 194 l 2
 52 256 42 264 3 253 c 1
 3 263 l 1
 107 298 l 1
 107 239 l 1
 120 262 148 298 181 298 c 0
 206 298 221 283 217 255 c 0
EndSplineSet
EndChar
StartChar: s
Encoding: 115 115 83
Width: 253
Flags: HMW
HStem: -7 20 278 20<100 131.5>
VStem: 33 42 184 42
Fore
226 81 m 0
 226 25 182 -7 130 -7 c 0
 111 -7 100 -2 83 3 c 0
 45 15 44 4 42 -2 c 1
 33 -2 l 1
 33 100 l 1
 44 100 l 1
 52 53 75 9 129 9 c 0
 157 9 181 26 181 55 c 0
 181 124 33 126 33 218 c 0
 33 269 76 298 124 298 c 0
 139 298 151 294 172 286 c 0
 194 279 195 289 197 292 c 1
 205 292 l 1
 205 204 l 1
 195 204 l 1
 183 249 167 283 123 283 c 0
 98 283 74 267 74 241 c 0
 74 176 226 163 226 81 c 0
EndSplineSet
EndChar
StartChar: t
Encoding: 116 116 84
Width: 181
Flags: HW
HStem: -7 20 271 20<102 166>
VStem: 46 51
Fore
182 44 m 1
 158 13 129 -7 98 -7 c 0
 55 -7 45 20 46 84 c 1
 46 271 l 1
 27 271 l 2
 19 271 4 267 10 280 c 1
 46 305 71 341 102 377 c 1
 102 291 l 1
 166 291 l 1
 166 271 l 1
 102 271 l 1
 102 95 l 2
 102 47 108 16 149 32 c 0
 159 36 167 44 173 52 c 1
 182 44 l 1
EndSplineSet
EndChar
StartChar: u
Encoding: 117 117 85
Width: 325
Flags: HW
HStem: -7 36 271 20<6 102 102 102 169 271 271 271>
VStem: 47 51 220 51
Fore
312 24 m 1
 286 16 251 4 220 -7 c 1
 220 50 l 1
 206 35 l 2
 192 19 165 -7 123 -7 c 0
 71 -7 47 30 47 86 c 2
 47 235 l 2
 47 274 42 282 6 282 c 1
 6 291 l 1
 102 291 l 1
 102 89 l 2
 102 56 115 31 151 31 c 0
 169 31 188 41 202 52 c 0
 220 67 216 75 216 98 c 2
 216 234 l 2
 216 274 212 282 169 282 c 1
 169 291 l 1
 271 291 l 1
 271 78 l 2
 271 44 274 31 312 33 c 1
 312 24 l 1
EndSplineSet
EndChar
StartChar: v
Encoding: 118 118 86
Width: 325
Flags: HW
HStem: -7 20 271 20<7 134 134 134 214 304 304 304>
VStem: 7 127<282 291> 214 90<282 291>
Fore
304 282 m 1
 280 282 272 254 260 223 c 1
 173 11 l 2
 171 6 165 -7 161 -7 c 0
 158 -7 152 6 150 11 c 2
 48 247 l 2
 38 271 22 282 7 282 c 1
 7 291 l 1
 134 291 l 1
 134 282 l 1
 93 282 104 257 113 233 c 1
 176 78 l 1
 226 210 l 2
 246 262 252 282 214 282 c 1
 214 291 l 1
 304 291 l 1
 304 282 l 1
EndSplineSet
EndChar
StartChar: w
Encoding: 119 119 87
Width: 470
Flags: HW
HStem: -7 20 271 20<14 131 131 131 171 302 302 302 371 451 451 451>
VStem: 169 133 367 84
Fore
451 282 m 1
 434 276 427 252 421 241 c 1
 323 -2 l 2
 322 -4 320 -7 318 -7 c 0
 316 -7 314 -4 312 -2 c 1
 242 174 l 1
 159 -2 l 2
 158 -4 155 -7 153 -7 c 0
 151 -7 149 -4 148 -2 c 2
 57 223 l 1
 41 264 38 282 14 282 c 1
 14 291 l 1
 131 291 l 1
 131 282 l 1
 114 283 101 280 101 260 c 0
 101 244 130 176 137 159 c 2
 169 76 l 1
 228 202 l 1
 211 258 203 282 171 282 c 1
 171 291 l 1
 302 291 l 1
 302 282 l 1
 258 283 258 269 275 223 c 1
 330 80 l 1
 384 210 l 1
 405 262 409 282 371 282 c 1
 371 291 l 1
 451 291 l 1
 451 282 l 1
EndSplineSet
EndChar
StartChar: x
Encoding: 120 120 88
Width: 325
Flags: HW
HStem: 0 20 271 20<16 151 151 151 180 282 282 282>
VStem: 11 96 180 102<282 291>
Fore
312 0 m 1
 181 0 l 1
 181 9 l 1
 205 11 222 17 211 32 c 2
 144 128 l 1
 97 55 l 2
 72 16 72 9 106 9 c 1
 106 0 l 1
 11 0 l 1
 11 9 l 1
 35 9 46 26 63 50 c 2
 133 150 l 1
 77 236 l 1
 61 259 58 280 16 282 c 1
 16 291 l 1
 151 291 l 1
 151 282 l 1
 128 282 123 273 123 265 c 0
 123 255 155 207 162 196 c 1
 171 210 206 250 206 267 c 0
 206 280 189 282 180 282 c 1
 180 291 l 1
 282 291 l 1
 282 282 l 1
 258 282 238 265 225 247 c 2
 175 176 l 1
 254 55 l 2
 271 29 289 9 312 9 c 1
 312 0 l 1
EndSplineSet
EndChar
StartChar: y
Encoding: 121 121 89
Width: 325
Flags: HW
HStem: -141 67 271 20<10 144 144 144 222 310 310 310>
VStem: 10 133 226 84
Fore
310 282 m 1
 297 282 282 260 276 245 c 2
 180 -5 l 2
 161 -54 132 -141 67 -141 c 0
 50 -141 33 -135 24 -120 c 1
 20 -110 18 -101 23 -91 c 0
 28 -80 42 -76 54 -76 c 0
 64 -76 78 -83 93 -87 c 0
 111 -91 126 -76 150 -15 c 0
 154 -5 160 9 157 16 c 2
 46 254 l 1
 39 271 29 280 10 282 c 1
 10 291 l 1
 144 291 l 1
 144 282 l 1
 100 282 100 267 113 239 c 2
 187 74 l 1
 251 255 l 1
 256 267 254 280 222 282 c 1
 222 291 l 1
 310 291 l 1
 310 282 l 1
EndSplineSet
EndChar
StartChar: z
Encoding: 122 122 90
Width: 289
Flags: HW
HStem: 0 20<87 169 169 178.5> 271 20<81 109 109 191>
Fore
272 88 m 1
 263 0 l 1
 16 0 l 1
 16 9 l 1
 191 271 l 1
 109 271 l 2
 53 271 50 250 46 215 c 1
 35 215 l 1
 37 291 l 1
 263 291 l 1
 263 282 l 1
 87 20 l 1
 169 20 l 2
 188 20 208 20 226 28 c 1
 252 35 254 69 260 91 c 1
 272 88 l 1
EndSplineSet
EndChar
StartChar: braceleft
Encoding: 123 123 91
Width: 312
Flags: HW
HStem: 424 20<189.5 222>
VStem: 121 51
Fore
222 -107 m 1
 148 -109 121 -91 121 -11 c 2
 121 93 l 2
 121 136 115 156 72 167 c 1
 112 179 121 200 121 241 c 2
 121 354 l 2
 121 431 157 444 222 444 c 1
 180 433 168 408 168 364 c 2
 168 250 l 2
 168 204 160 179 115 167 c 1
 162 155 168 126 168 79 c 2
 168 -28 l 2
 168 -72 181 -99 222 -107 c 1
EndSplineSet
EndChar
StartChar: bar
Encoding: 124 124 92
Width: 130
Flags: HW
HStem: 0 20 424 20<44 86 86 86>
VStem: 44 42<0 444>
Fore
86 0 m 1
 44 0 l 1
 44 444 l 1
 86 444 l 1
 86 0 l 1
EndSplineSet
EndChar
StartChar: braceright
Encoding: 125 125 93
Width: 312
Flags: HW
HStem: 424 20<91 123.5>
VStem: 140 51
Fore
241 167 m 1
 198 156 191 136 191 93 c 2
 191 -11 l 2
 191 -91 164 -109 91 -107 c 1
 132 -99 145 -72 145 -28 c 2
 145 79 l 2
 145 126 150 155 197 167 c 1
 152 179 145 204 145 250 c 2
 145 364 l 2
 145 408 133 433 91 444 c 1
 156 444 191 431 191 354 c 2
 191 241 l 2
 191 200 200 179 241 167 c 1
EndSplineSet
EndChar
StartChar: asciitilde
Encoding: 126 126 94
Width: 352
Flags: HW
HStem: 129 36 172 44
Fore
340 200 m 1
 321 165 290 129 248 129 c 0
 198 129 149 174 104 174 c 0
 68 174 50 141 35 115 c 1
 12 141 l 1
 32 176 58 216 104 216 c 0
 149 216 214 170 249 170 c 0
 278 170 304 201 317 226 c 1
 340 200 l 1
EndSplineSet
EndChar
StartChar: uni0E10.descless
Encoding: 128 63232 95
Width: 331
Flags: HW
HStem: -5 28<181.5 198.5>
VStem: 116 51 214 51
Fore
294 372 m 0
 294 372 l 0
 273 300 201 319 189 323 c 0
 98 352 70 349 53 307 c 1
 233 261 l 1
 243 256 265 255 265 216 c 2
 265 69 l 2
 265 27 241 -5 190 -5 c 0
 148 -5 116 29 116 69 c 2
 116 129 l 1
 108 125 100 124 90 124 c 0
 55 124 34 151 35 182 c 1
 38 211 58 233 90 233 c 0
 142 234 165 208 165 176 c 2
 165 51 l 2
 165 38 173 23 190 23 c 0
 207 23 215 38 215 50 c 2
 215 209 l 2
 215 230 211 237 196 241 c 2
 18 286 l 1
 26 311 48 389 120 387 c 0
 164 387 251 343 285 379 c 0
 291 385 297 382 294 372 c 0
90 149 m 0
 129 149 129 208 90 208 c 0
 52 208 52 149 90 149 c 0
EndSplineSet
KernsSLIF: 209 30 0 0 213 30 0 0 214 30 0 0 215 30 0 0 212 30 0 0
EndChar
StartChar: uni0E34.left
Encoding: 129 63233 96
Width: 0
Flags: HW
Fore
-166 426 m 0
 -166 426 l 0
 -182 434 -262 470 -309 476 c 0
 -373 486 -429 477 -441 474 c 1
 -423 543 -367 586 -300 581 c 0
 -226 576 -171 518 -166 426 c 0
-200 468 m 1
 -221 523 -254 543 -302 549 c 0
 -343 554 -379 534 -394 507 c 1
 -394 507 -347 511 -302 503 c 0
 -241 492 -200 468 -200 468 c 1
EndSplineSet
EndChar
StartChar: uni0E35.left
Encoding: 130 63234 97
Width: 0
Flags: HW
VStem: -224 42
Fore
-166 426 m 0
 -166 426 l 0
 -182 434 -262 469 -309 476 c 0
 -375 486 -429 477 -441 474 c 1
 -427 534 -373 586 -306 581 c 0
 -283 580 -253 575 -226 555 c 1
 -226 619 l 1
 -182 619 l 1
 -182 496 l 1
 -182 496 -169 469 -166 426 c 0
-200 468 m 1
 -221 523 -254 543 -302 549 c 0
 -343 554 -379 534 -394 507 c 1
 -394 507 -347 511 -302 503 c 0
 -241 492 -200 468 -200 468 c 1
EndSplineSet
EndChar
StartChar: uni0E36.left
Encoding: 131 63235 98
Width: 0
Flags: HW
HStem: 588 28
Fore
-207 535 m 0
 -207 535 l 0
 -172 535 -172 589 -207 589 c 0
 -241 589 -241 535 -207 535 c 0
-200 468 m 1
 -200 468 l 0
 -221 523 -254 543 -302 549 c 0
 -343 554 -379 534 -394 507 c 1
 -394 507 -347 511 -302 503 c 0
 -241 492 -200 468 -200 468 c 1
-166 426 m 1
 -182 434 -262 469 -309 476 c 0
 -375 486 -429 477 -441 474 c 1
 -427 535 -370 586 -304 581 c 0
 -277 579 -258 571 -258 571 c 1
 -259 591 -240 616 -205 616 c 0
 -174 616 -152 591 -152 563 c 0
 -152 540 -165 515 -189 510 c 1
 -189 510 -168 477 -166 426 c 1
EndSplineSet
EndChar
StartChar: uni0E37.left
Encoding: 132 63236 99
Width: 0
Flags: HW
VStem: -226 42
Fore
-166 426 m 0
 -166 426 l 0
 -182 434 -262 469 -309 476 c 0
 -375 486 -429 477 -441 474 c 1
 -421 554 -352 587 -302 579 c 1
 -301 619 l 1
 -265 619 l 1
 -264 571 l 1
 -242 566 -223 550 -223 550 c 1
 -223 619 l 1
 -185 619 l 1
 -183 497 l 1
 -183 497 -168 471 -166 426 c 0
-200 468 m 1
 -221 523 -254 543 -302 549 c 0
 -343 554 -379 534 -394 507 c 1
 -394 507 -347 511 -302 503 c 0
 -241 492 -200 468 -200 468 c 1
EndSplineSet
EndChar
StartChar: ellipsis
Encoding: 133 8230 100
Width: 650
Flags: HW
HStem: -9 79
VStem: 72 74<19 38.5> 288 74 505 74<19 29>
Fore
579 29 m 0
 579 29 l 0
 579 8 562 -9 541 -9 c 0
 521 -9 505 9 505 29 c 0
 505 48 522 66 541 66 c 0
 561 66 579 49 579 29 c 0
363 29 m 0
 363 29 l 0
 363 8 345 -9 325 -9 c 0
 304 -9 288 9 288 29 c 0
 288 48 305 66 325 66 c 0
 345 66 363 49 363 29 c 0
146 29 m 0
 146 8 129 -9 108 -9 c 0
 88 -9 72 9 72 29 c 0
 72 48 89 66 108 66 c 0
 128 66 146 49 146 29 c 0
EndSplineSet
EndChar
StartChar: uni0E48.low_left
Encoding: 134 63237 101
Width: 0
Flags: HW
HStem: 446 157<-222 -189 -222 -222>
VStem: -227 42
Fore
-179 603 m 1
 -189 446 l 1
 -222 446 l 1
 -232 603 l 1
 -179 603 l 1
EndSplineSet
EndChar
StartChar: uni0E49.low_left
Encoding: 135 63238 102
Width: 0
Flags: HW
HStem: 505 20 590 20<-390 -326>
Fore
-149 606 m 1
 -149 606 l 0
 -179 415 -372 434 -392 436 c 1
 -392 458 l 1
 -386 460 -350 478 -338 508 c 1
 -338 508 -344 505 -354 505 c 0
 -426 505 -426 610 -354 610 c 0
 -298 610 -296 558 -296 558 c 1
 -296 498 -336 466 -336 466 c 1
 -335 465 l 1
 -294 471 -208 499 -202 606 c 1
 -149 606 l 1
-353 528 m 0
 -314 528 -314 587 -353 587 c 0
 -393 587 -393 528 -353 528 c 0
EndSplineSet
EndChar
StartChar: uni0E4A.low_left
Encoding: 136 63239 103
Width: 0
Flags: HW
HStem: 552 36
VStem: -423 32 -334 20<467 490.5>
Fore
-160 590 m 1
 -160 590 l 0
 -155 500 -201 445 -284 436 c 1
 -284 452 l 1
 -248 474 -252 544 -285 553 c 1
 -322 528 l 1
 -357 553 l 1
 -381 553 -399 525 -395 500 c 1
 -395 500 -389 521 -357 521 c 0
 -332 521 -314 501 -314 480 c 0
 -314 454 -329 434 -357 434 c 0
 -398 434 -423 469 -423 516 c 0
 -423 549 -391 588 -357 588 c 1
 -357 588 -322 558 -321 558 c 2
 -286 587 l 1
 -211 568 -224 502 -238 474 c 1
 -201 499 -191 543 -202 590 c 1
 -160 590 l 1
-334 477 m 0
 -334 510 -383 510 -383 477 c 0
 -383 445 -334 445 -334 477 c 0
EndSplineSet
EndChar
StartChar: uni0E4B.low_left
Encoding: 137 63240 104
Width: 0
Flags: HW
Fore
-152 506 m 1
 -226 505 l 1
 -227 440 l 1
 -264 440 l 1
 -265 505 l 1
 -340 506 l 1
 -340 543 l 1
 -266 544 l 1
 -267 609 l 1
 -224 609 l 1
 -225 544 l 1
 -152 543 l 1
 -152 506 l 1
EndSplineSet
EndChar
StartChar: uni0E4C.low_left
Encoding: 138 63241 105
Width: 0
Flags: HW
Fore
-147 621 m 1
 -147 621 l 0
 -154 551 -238 536 -259 532 c 2
 -260 531 l 1
 -241 528 -230 506 -230 487 c 0
 -230 460 -250 436 -282 436 c 0
 -314 436 -335 460 -335 487 c 0
 -335 512 -327 541 -260 560 c 0
 -228 570 -192 590 -194 630 c 1
 -147 621 l 1
-282 458 m 0
 -244 458 -244 513 -282 513 c 0
 -320 513 -320 458 -282 458 c 0
EndSplineSet
EndChar
StartChar: uni0E48.low
Encoding: 139 63242 106
Width: 0
Flags: HW
HStem: 436 157
Fore
-62 595 m 1
 -73 436 l 1
 -111 436 l 1
 -122 595 l 1
 -62 595 l 1
EndSplineSet
EndChar
StartChar: uni0E49.low
Encoding: 140 63243 107
Width: 0
Flags: HW
Fore
13 620 m 1
 13 620 l 0
 -7 414 -215 434 -237 436 c 1
 -237 459 l 1
 -231 461 -194 477 -181 508 c 1
 -181 508 l 1
 -181 508 -189 505 -200 505 c 0
 -280 505 -280 622 -200 622 c 0
 -138 622 -137 565 -137 564 c 0
 -137 498 -181 466 -181 466 c 1
 -180 466 l 1
 -180 466 -45 470 -40 620 c 1
 13 620 l 1
-200 529 m 0
 -153 529 -153 598 -200 598 c 0
 -245 598 -245 529 -200 529 c 0
EndSplineSet
EndChar
StartChar: uni0E4A.low
Encoding: 141 63244 108
Width: 0
Flags: HW
HStem: 571 36
VStem: -203 20
Fore
5 603 m 1
 5 603 l 0
 6 520 -42 450 -145 436 c 1
 -145 455 l 1
 -104 480 -108 559 -146 570 c 1
 -188 541 l 1
 -193 544 -229 570 -229 570 c 1
 -255 570 -278 531 -271 506 c 1
 -270 506 l 1
 -270 506 -263 530 -229 530 c 0
 -203 530 -181 509 -181 485 c 0
 -181 457 -198 435 -229 435 c 0
 -275 435 -300 477 -300 527 c 0
 -300 561 -266 606 -227 607 c 1
 -226 606 -188 575 -187 575 c 2
 -148 607 l 1
 -47 578 -93 481 -93 481 c 1
 -92 481 l 2
 -59 501 -32 555 -44 603 c 1
 5 603 l 1
-203 481 m 0
 -203 518 -257 518 -257 481 c 0
 -257 446 -203 446 -203 481 c 0
EndSplineSet
EndChar
StartChar: uni0E4B.low
Encoding: 142 63245 109
Width: 0
Flags: HW
Fore
0 507 m 1
 -73 506 l 1
 -74 441 l 1
 -113 441 l 1
 -114 506 l 1
 -188 507 l 1
 -188 546 l 1
 -115 547 l 1
 -116 613 l 1
 -71 613 l 1
 -72 547 l 1
 0 546 l 1
 0 507 l 1
EndSplineSet
EndChar
StartChar: uni0E4C.low
Encoding: 143 63246 110
Width: 0
Flags: HW
Fore
0 618 m 1
 0 618 l 0
 -15 556 -89 542 -112 538 c 2
 -114 537 l 1
 -90 533 -80 509 -80 489 c 0
 -80 460 -102 435 -135 435 c 0
 -173 435 -192 460 -192 491 c 0
 -192 516 -184 545 -116 567 c 0
 -82 578 -54 597 -47 632 c 1
 0 618 l 1
-135 460 m 0
 -98 460 -98 517 -135 517 c 0
 -175 517 -175 460 -135 460 c 0
EndSplineSet
EndChar
StartChar: uni0E0D.descless
Encoding: 144 63247 111
Width: 519
Flags: HW
HStem: -3 20 257 28
VStem: 62 51<103 217 217 223> 255 51 400 51
Fore
451 70 m 1
 451 70 l 0
 451 36 409 -3 352 -3 c 0
 296 -3 256 33 256 75 c 2
 256 266 l 2
 256 394 86 384 61 285 c 1
 172 285 l 1
 172 256 l 1
 165 256 142 256 141 256 c 0
 112 256 113 223 113 223 c 1
 113 221 113 103 113 103 c 1
 205 134 222 1 138 -3 c 0
 74 -6 62 47 62 73 c 2
 62 217 l 2
 62 247 84 256 84 256 c 1
 30 256 l 1
 32 422 296 441 306 270 c 1
 306 68 l 2
 306 42 324 21 352 21 c 0
 383 21 401 41 401 67 c 2
 401 345 l 1
 433 383 l 1
 440 388 451 392 451 369 c 0
 451 368 451 70 451 70 c 1
138 23 m 0
 177 23 177 81 138 81 c 0
 99 81 99 23 138 23 c 0
EndSplineSet
EndChar
StartChar: quoteleft
Encoding: 145 8216 112
Width: 217
Flags: HW
HStem: 297 79<93.5 95.5>
VStem: 56 32
Fore
158 341 m 0
 158 314 142 297 114 297 c 0
 73 297 56 335 56 368 c 0
 56 410 98 456 138 474 c 1
 147 456 l 1
 123 442 90 406 90 383 c 0
 90 379 89 376 93 376 c 0
 98 376 104 382 117 381 c 0
 139 380 158 365 158 341 c 0
EndSplineSet
EndChar
StartChar: quoteright
Encoding: 146 8217 113
Width: 217
Flags: HMW
HStem: 394 79<120.5 122.5>
VStem: 128 32
Fore
58 429 m 0
 58 456 74 473 102 473 c 0
 143 473 160 435 160 402 c 0
 160 360 118 314 78 296 c 1
 69 314 l 1
 93 328 126 364 126 387 c 0
 126 391 127 394 123 394 c 0
 118 394 112 388 99 389 c 0
 77 390 58 405 58 429 c 0
EndSplineSet
EndChar
StartChar: quotedblleft
Encoding: 147 8220 114
Width: 308
Flags: HW
HStem: 297 79<53.5 55.5 214.5 216.5>
VStem: 16 32 179 32
Fore
279 341 m 0
 279 341 l 0
 279 314 263 297 235 297 c 0
 194 297 177 335 177 368 c 0
 177 410 219 456 259 474 c 1
 268 456 l 1
 244 442 211 406 211 383 c 0
 211 379 210 376 214 376 c 0
 219 376 225 382 238 381 c 0
 260 380 279 365 279 341 c 0
118 341 m 0
 118 314 102 297 74 297 c 0
 33 297 16 335 16 368 c 0
 16 410 58 456 98 474 c 1
 107 456 l 1
 83 442 50 406 50 383 c 0
 50 379 49 376 53 376 c 0
 58 376 64 382 77 381 c 0
 99 380 118 365 118 341 c 0
EndSplineSet
EndChar
StartChar: quotedblright
Encoding: 148 8221 115
Width: 308
Flags: HMW
HStem: 394 79<90.5 92.5 251.5 253.5>
VStem: 98 32 259 32
Fore
28 429 m 0
 28 429 l 0
 28 456 44 473 72 473 c 0
 113 473 130 435 130 402 c 0
 130 360 88 314 48 296 c 1
 39 314 l 1
 63 328 96 364 96 387 c 0
 96 391 97 394 93 394 c 0
 88 394 82 388 69 389 c 0
 47 390 28 405 28 429 c 0
189 429 m 0
 189 456 205 473 233 473 c 0
 274 473 291 435 291 402 c 0
 291 360 249 314 209 296 c 1
 200 314 l 1
 224 328 257 364 257 387 c 0
 257 391 258 394 254 394 c 0
 249 394 243 388 230 389 c 0
 208 390 189 405 189 429 c 0
EndSplineSet
EndChar
StartChar: bullet
Encoding: 149 8226 116
Width: 251
Flags: HW
HStem: 123 170<102 149>
VStem: 41 168
Fore
210 208 m 0
 210 161 173 123 125 123 c 0
 79 123 41 161 41 208 c 0
 40 255 78 293 125 293 c 0
 173 293 210 255 210 208 c 0
EndSplineSet
EndChar
StartChar: endash
Encoding: 150 8211 117
Width: 500
Flags: HW
HStem: 139 28
Fore
478 139 m 1
 22 139 l 1
 22 170 l 1
 478 170 l 1
 478 139 l 1
EndSplineSet
EndChar
StartChar: emdash
Encoding: 151 8212 118
Width: 1000
Flags: HW
HStem: 139 28
Fore
986 139 m 1
 14 139 l 1
 14 170 l 1
 986 170 l 1
 986 139 l 1
EndSplineSet
EndChar
StartChar: uni0E31.left
Encoding: 152 63248 119
Width: 0
Flags: HW
HStem: 566 28
Fore
43 591 m 1
 43 591 l 0
 -2 409 -283 401 -319 521 c 0
 -329 556 -307 593 -263 594 c 0
 -237 595 -214 581 -207 554 c 0
 -194 504 -236 485 -236 485 c 1
 -111 444 -20 531 -14 591 c 1
 43 591 l 1
-262 508 m 0
 -223 508 -223 567 -262 567 c 0
 -302 567 -302 508 -262 508 c 0
EndSplineSet
EndChar
StartChar: uni0E4D.left
Encoding: 153 63249 120
Width: 0
Flags: HW
Fore
-228 440 m 0
 -228 440 l 0
 -309 440 -309 562 -228 562 c 0
 -148 562 -146 440 -228 440 c 0
-228 467 m 0
 -183 467 -183 534 -228 534 c 0
 -274 534 -274 467 -228 467 c 0
EndSplineSet
EndChar
StartChar: uni0E47.left
Encoding: 154 63250 121
Width: 0
Flags: HW
HStem: 485 36<-332 -303>
VStem: -204 51
Fore
-153 648 m 1
 -153 648 l 0
 -153 583 -185 545 -288 565 c 0
 -331 573 -360 574 -367 535 c 0
 -371 517 -365 497 -360 490 c 1
 -360 490 -354 521 -320 521 c 0
 -286 521 -271 486 -254 478 c 1
 -254 478 -256 482 -256 487 c 0
 -256 550 -161 549 -161 485 c 0
 -161 451 -187 435 -208 435 c 0
 -273 435 -282 485 -315 485 c 0
 -349 485 -344 445 -335 435 c 1
 -359 435 l 1
 -386 457 -408 503 -396 551 c 0
 -389 580 -360 620 -278 601 c 0
 -224 589 -196 593 -199 648 c 1
 -153 648 l 1
-184 485 m 0
 -184 519 -234 519 -234 485 c 0
 -234 453 -184 453 -184 485 c 0
EndSplineSet
EndChar
StartChar: uni0E48.left
Encoding: 155 63251 122
Width: 0
Flags: HW
HStem: 655 142
VStem: -227 42
Fore
-180 798 m 1
 -188 655 l 1
 -223 655 l 1
 -231 798 l 1
 -180 798 l 1
EndSplineSet
EndChar
StartChar: uni0E49.left
Encoding: 156 63252 123
Width: 0
Flags: HW
Fore
-50 800 m 1
 -50 800 l 0
 -68 685 -164 635 -284 649 c 1
 -284 668 l 1
 -267 673 -247 683 -236 704 c 1
 -236 704 -241 702 -244 702 c 0
 -313 702 -313 800 -244 800 c 0
 -193 800 -192 751 -192 751 c 1
 -192 698 -229 674 -229 674 c 1
 -229 672 l 1
 -159 676 -105 715 -99 800 c 1
 -50 800 l 1
-244 723 m 0
 -208 723 -208 778 -244 778 c 0
 -283 778 -283 723 -244 723 c 0
EndSplineSet
EndChar
StartChar: uni0E4A.left
Encoding: 157 63253 124
Width: 0
Flags: HW
HStem: 764 36
VStem: -315 32 -226 20<679 702.5>
Fore
-52 800 m 1
 -52 800 l 0
 -47 710 -97 659 -176 648 c 1
 -176 664 l 1
 -140 686 -144 756 -177 765 c 1
 -214 740 l 1
 -249 765 l 1
 -273 765 -291 737 -287 712 c 1
 -287 712 -281 733 -249 733 c 0
 -224 733 -206 713 -206 692 c 0
 -206 666 -221 647 -249 647 c 0
 -290 647 -315 681 -315 728 c 0
 -315 761 -283 800 -249 800 c 1
 -249 800 -214 770 -213 770 c 2
 -178 800 l 1
 -103 781 -116 714 -130 686 c 1
 -93 711 -83 753 -94 800 c 1
 -52 800 l 1
-226 689 m 0
 -226 722 -275 722 -275 689 c 0
 -275 658 -226 658 -226 689 c 0
EndSplineSet
EndChar
StartChar: uni0E4B.left
Encoding: 158 63254 125
Width: 0
Flags: HW
Fore
-117 704 m 1
 -185 703 l 1
 -186 646 l 1
 -223 646 l 1
 -224 703 l 1
 -294 704 l 1
 -294 741 l 1
 -225 742 l 1
 -226 800 l 1
 -183 800 l 1
 -184 742 l 1
 -117 741 l 1
 -117 704 l 1
EndSplineSet
EndChar
StartChar: uni0E4C.left
Encoding: 159 63255 126
Width: 0
Flags: HW
HStem: 601 20
Fore
-65 758 m 1
 -65 758 l 0
 -87 693 -188 692 -183 690 c 0
 -140 671 -152 601 -205 601 c 0
 -237 601 -256 621 -256 649 c 0
 -256 688 -225 710 -179 718 c 0
 -162 721 -108 742 -106 777 c 1
 -65 758 l 1
-206 620 m 0
 -169 620 -169 674 -206 674 c 0
 -242 674 -242 620 -206 620 c 0
EndSplineSet
EndChar
StartChar: uni0E01
Encoding: 161 3585 128
Width: 392
Flags: HW
HStem: 0 20 256 28
VStem: 62 51 274 51
Fore
325 0 m 1
 275 0 l 1
 275 265 l 2
 275 391 91 380 63 284 c 1
 174 284 l 1
 174 255 l 1
 167 255 143 255 142 255 c 0
 114 255 114 222 114 222 c 1
 114 0 l 1
 62 0 l 1
 62 211 l 2
 62 243 84 255 84 255 c 1
 29 255 l 1
 29 423 315 441 325 269 c 1
 325 0 l 1
EndSplineSet
EndChar
StartChar: uni0E02
Encoding: 162 3586 129
Width: 381
Flags: HW
HStem: -5 28<225.5 242> 209 20<60.5 97.5> 361 28
VStem: 154 51 263 51<50 69 69 345 345 345>
Fore
314 69 m 1
 314 69 l 0
 314 26 286 -5 234 -5 c 0
 187 -5 153 27 153 69 c 2
 153 295 l 2
 153 329 136 356 104 356 c 0
 70 356 47 334 46 295 c 1
 58 305 64 307 79 307 c 0
 148 306 144 208 80 208 c 0
 28 208 15 265 18 305 c 0
 22 351 54 389 111 389 c 0
 171 389 205 346 205 292 c 2
 205 51 l 2
 205 37 217 23 234 23 c 0
 250 23 263 38 263 50 c 2
 263 345 l 1
 295 383 l 1
 302 388 314 392 314 369 c 0
 314 368 314 69 314 69 c 1
79 229 m 0
 116 229 116 285 79 285 c 0
 42 285 42 229 79 229 c 0
EndSplineSet
EndChar
StartChar: uni0E03
Encoding: 163 3587 130
Width: 413
Flags: HW
HStem: -5 28<255.5 274> 341 44
VStem: 185 51 294 51<50 69 69 345 345 345>
Fore
345 69 m 1
 345 69 l 0
 345 26 317 -5 265 -5 c 0
 218 -5 184 29 184 69 c 1
 186 300 l 1
 186 322 181 341 167 341 c 1
 120 294 l 1
 74 341 l 1
 54 341 39 314 44 269 c 1
 44 269 53 282 76 282 c 0
 144 282 143 182 75 182 c 0
 18 182 7 254 14 306 c 0
 21 355 48 378 74 386 c 1
 120 335 l 1
 168 385 l 1
 211 382 238 349 238 300 c 1
 236 51 l 1
 236 37 246 23 265 23 c 0
 283 23 294 38 294 50 c 2
 294 345 l 1
 326 383 l 1
 333 388 345 392 345 369 c 0
 345 368 345 69 345 69 c 1
76 203 m 0
 115 203 115 260 76 260 c 0
 38 260 40 203 76 203 c 0
EndSplineSet
EndChar
StartChar: uni0E04
Encoding: 164 3588 131
Width: 384
Flags: HW
HStem: 0 20 362 28
VStem: 23 32 66 51<0 146 146 149> 267 51
Fore
166 201 m 0
 166 201 l 0
 210 201 210 265 166 265 c 0
 123 265 123 201 166 201 c 0
81 209 m 1
 88 245 110 289 164 289 c 0
 240 289 240 178 163 178 c 0
 138 178 124 196 124 196 c 1
 118 182 117 160 117 149 c 2
 117 0 l 1
 66 0 l 1
 66 146 l 2
 66 173 23 202 23 269 c 0
 23 338 84 390 161 390 c 0
 242 390 318 361 318 261 c 2
 318 0 l 1
 268 0 l 1
 268 261 l 2
 268 339 219 360 160 360 c 0
 97 360 53 312 53 269 c 0
 53 240 62 218 81 209 c 1
EndSplineSet
EndChar
StartChar: uni0E05
Encoding: 165 3589 132
Width: 383
Flags: HW
HStem: 0 20
VStem: 23 32 66 51<0 149 149 156> 266 51
Fore
317 0 m 1
 267 0 l 1
 267 260 l 2
 267 298 269 328 226 350 c 1
 168 305 l 1
 108 350 l 1
 85 344 54 312 54 269 c 0
 54 238 65 218 82 209 c 1
 90 254 110 289 164 289 c 0
 240 289 240 178 163 178 c 0
 140 178 127 192 127 192 c 1
 120 187 117 174 117 156 c 2
 117 0 l 1
 66 0 l 1
 66 149 l 2
 66 177 23 206 23 269 c 0
 23 345 83 378 111 387 c 1
 168 341 l 1
 224 387 l 1
 248 383 317 359 317 260 c 2
 317 0 l 1
166 201 m 0
 210 201 210 265 166 265 c 0
 123 265 123 201 166 201 c 0
EndSplineSet
EndChar
StartChar: uni0E06
Encoding: 166 3590 133
Width: 493
Flags: HW
HStem: -5 20 341 44
VStem: 187 51 373 51
Fore
187 44 m 0
 187 94 l 0
 147 97 141 49 160 33 c 1
 167 29 189 26 187 44 c 0
189 300 m 1
 189 300 l 0
 189 322 184 341 170 341 c 1
 123 294 l 1
 77 341 l 1
 57 341 42 314 47 269 c 1
 47 269 56 282 79 282 c 0
 147 282 146 182 78 182 c 0
 21 182 10 254 17 306 c 0
 24 355 51 378 77 386 c 1
 123 335 l 1
 171 385 l 1
 214 382 241 349 241 300 c 1
 239 124 l 1
 239 124 325 111 374 50 c 1
 374 343 l 1
 406 381 l 1
 412 386 425 390 424 367 c 0
 424 366 424 29 424 0 c 1
 371 0 l 1
 320 87 240 92 240 92 c 1
 241 37 241 -5 185 -5 c 0
 95 -6 101 130 187 129 c 1
 189 300 l 1
79 203 m 0
 118 203 118 260 79 260 c 0
 41 260 43 203 79 203 c 0
EndSplineSet
EndChar
StartChar: uni0E07
Encoding: 167 3591 134
Width: 312
Flags: HW
HStem: 0 20
VStem: 195 51
Fore
246 0 m 1
 192 0 l 1
 30 175 l 1
 31 212 l 1
 194 64 l 1
 194 281 l 1
 187 273 176 272 167 272 c 0
 85 272 85 387 172 387 c 0
 251 387 246 326 246 318 c 0
 246 317 246 0 246 0 c 1
165 296 m 0
 210 296 210 362 165 362 c 0
 120 362 120 296 165 296 c 0
EndSplineSet
EndChar
StartChar: uni0E08
Encoding: 168 3592 135
Width: 368
Flags: HW
HStem: -3 28<211 229.5> 263 28 353 36
VStem: 140 51<71 186 186 186> 250 51
Fore
301 71 m 1
 301 71 l 0
 301 28 272 -3 220 -3 c 0
 177 -3 140 31 140 71 c 2
 140 186 l 1
 132 182 125 180 116 180 c 0
 80 180 60 209 61 239 c 0
 63 269 85 291 120 291 c 0
 175 292 191 262 191 231 c 2
 191 53 l 2
 191 39 202 25 220 25 c 0
 239 25 249 40 249 52 c 2
 249 273 l 2
 249 322 211 354 158 354 c 0
 87 354 49 302 42 286 c 1
 21 295 l 1
 35 331 85 389 158 389 c 0
 244 389 301 347 301 269 c 2
 301 71 l 1
116 206 m 0
 155 206 155 264 116 264 c 0
 77 264 77 206 116 206 c 0
EndSplineSet
EndChar
StartChar: uni0E09
Encoding: 169 3593 136
Width: 401
Flags: HW
HStem: -5 20 235 28
VStem: 115 51 281 51<114 118 118 270 270 271>
Fore
332 118 m 0
 332 118 l 0
 332 110 322 107 322 107 c 1
 322 105 l 1
 376 92 376 -5 304 -5 c 0
 278 -5 260 10 252 35 c 0
 244 61 261 83 261 83 c 1
 190 69 167 9 164 0 c 1
 115 0 l 1
 115 156 l 1
 22 126 1 257 88 263 c 0
 148 267 165 235 165 190 c 2
 165 59 l 1
 169 58 l 1
 169 58 195 108 281 112 c 1
 281 270 l 2
 281 319 238 354 176 354 c 0
 107 354 60 302 52 286 c 1
 31 295 l 1
 103 441 332 405 332 271 c 2
 332 271 332 119 332 118 c 0
89 177 m 0
 89 177 l 0
 128 177 128 237 89 237 c 0
 50 237 50 177 89 177 c 0
304 21 m 0
 345 21 345 79 304 79 c 0
 265 79 265 21 304 21 c 0
EndSplineSet
EndChar
StartChar: uni0E0A
Encoding: 170 3594 137
Width: 380
Flags: HW
HStem: 0 28 209 20<79 79 79 97> 287 20<73 80> 360 28
VStem: 152 51
Fore
350 385 m 1
 350 385 l 0
 328 291 260 274 260 274 c 1
 341 252 344 -1 240 0 c 2
 110 0 l 1
 110 32 l 1
 152 32 l 1
 152 295 l 2
 152 327 139 356 99 356 c 0
 62 356 42 321 46 293 c 1
 54 304 66 307 80 307 c 0
 146 305 143 208 80 208 c 0
 32 208 13 256 17 303 c 0
 21 351 53 388 109 388 c 0
 206 388 204 293 204 293 c 1
 264 290 293 346 294 385 c 1
 350 385 l 1
79 229 m 0
 79 229 l 0
 115 229 115 285 79 285 c 0
 40 285 40 229 79 229 c 0
239 252 m 1
 228 258 214 260 204 259 c 1
 204 32 l 1
 231 32 l 2
 287 32 287 218 239 252 c 1
EndSplineSet
EndChar
StartChar: uni0E0B
Encoding: 171 3595 138
Width: 423
Flags: HW
HStem: 0 28 265 28 341 44
VStem: 187 51
Fore
274 251 m 0
 274 251 l 0
 262 257 254 260 241 260 c 1
 238 32 l 1
 265 32 l 2
 319 33 323 217 274 251 c 0
189 300 m 1
 189 300 l 0
 189 322 184 341 170 341 c 1
 123 294 l 1
 77 341 l 1
 57 341 42 314 47 269 c 1
 47 269 56 282 79 282 c 0
 147 282 146 182 78 182 c 0
 21 182 10 254 17 306 c 0
 24 355 51 378 77 386 c 1
 123 335 l 1
 171 385 l 1
 214 382 241 349 241 300 c 2
 241 293 l 1
 304 290 327 346 328 385 c 1
 384 385 l 1
 366 297 294 275 294 275 c 1
 374 247 378 -1 274 0 c 2
 145 0 l 1
 145 32 l 1
 186 32 l 1
 189 300 l 1
79 203 m 0
 118 203 118 260 79 260 c 0
 41 260 43 203 79 203 c 0
EndSplineSet
EndChar
StartChar: uni0E0C
Encoding: 172 3596 139
Width: 531
Flags: HW
HStem: -5 20 256 28
VStem: 62 51 274 51 411 51<0 0>
Fore
462 0 m 0
 411 0 l 0
 397 72 325 78 325 78 c 1
 325 34 321 -5 272 -5 c 0
 195 -5 200 111 275 108 c 1
 275 265 l 1
 274 393 91 379 63 284 c 1
 174 284 l 1
 174 255 l 1
 167 255 143 255 142 255 c 0
 113 255 114 222 114 222 c 1
 114 220 114 100 114 100 c 1
 197 124 213 -5 129 -5 c 0
 76 -5 62 45 62 71 c 2
 62 211 l 2
 62 244 84 255 84 255 c 1
 29 255 l 1
 30 423 315 441 325 269 c 1
 325 106 l 1
 325 106 388 97 412 61 c 1
 412 343 l 1
 443 381 l 1
 450 386 462 390 462 367 c 0
 462 366 462 29 462 0 c 0
275 40 m 0
 275 82 l 0
 243 85 229 46 250 27 c 1
 258 22 276 18 275 40 c 0
128 20 m 0
 169 20 169 79 128 79 c 0
 89 79 89 20 128 20 c 0
EndSplineSet
EndChar
StartChar: uni0E0D
Encoding: 173 3597 140
Width: 521
Flags: HW
HStem: -150 20 -5 20 256 28
VStem: 62 51 261 51 336 20<-80.5 -57> 401 51
Fore
452 68 m 1
 452 68 l 0
 452 35 411 -5 353 -5 c 0
 297 -5 257 31 257 73 c 2
 257 265 l 1
 256 394 86 373 63 284 c 1
 174 284 l 1
 174 255 l 1
 167 255 143 255 142 255 c 0
 113 255 114 222 114 222 c 1
 114 220 114 100 114 100 c 1
 207 133 223 -1 138 -5 c 0
 75 -8 62 45 62 71 c 2
 62 211 l 2
 62 244 84 255 84 255 c 1
 29 255 l 1
 34 423 296 440 307 269 c 1
 307 66 l 2
 307 40 326 19 354 19 c 0
 383 19 402 39 402 65 c 2
 402 343 l 1
 433 381 l 1
 440 386 452 390 452 367 c 0
 452 366 452 68 452 68 c 1
452 -70 m 1
 452 -70 l 0
 452 -101 425 -150 347 -150 c 0
 270 -150 260 -91 261 -73 c 0
 262 -55 273 -25 314 -25 c 0
 341 -25 356 -44 356 -70 c 0
 356 -91 337 -110 314 -110 c 0
 303 -110 296 -106 290 -102 c 1
 298 -117 317 -129 347 -129 c 0
 382 -129 406 -99 406 -69 c 2
 406 -34 l 1
 452 -34 l 1
 452 -70 l 1
138 21 m 0
 138 21 l 0
 179 21 179 79 138 79 c 0
 99 79 99 21 138 21 c 0
337 -67 m 0
 337 -35 288 -35 288 -67 c 0
 288 -100 337 -100 337 -67 c 0
EndSplineSet
EndChar
StartChar: uni0E0E
Encoding: 174 3598 141
Width: 399
Flags: HW
HStem: -138 28<112.5 135.5> 256 28
VStem: 69 51<106 216 216 222> 281 51<-104 265>
Fore
332 -157 m 1
 281 -157 l 0
 278 -141 243 -92 198 -72 c 1
 198 -72 177 -138 120 -138 c 0
 82 -138 53 -119 53 -82 c 0
 53 -40 109 -9 178 -36 c 1
 178 -36 188 -2 212 8 c 1
 236 -3 l 1
 209 -22 205 -45 205 -45 c 1
 257 -63 281 -104 281 -104 c 1
 281 265 l 2
 281 391 97 381 69 284 c 1
 181 284 l 1
 181 255 l 1
 150 255 l 2
 119 255 120 222 120 222 c 1
 120 52 l 2
 120 16 96 -5 65 -5 c 0
 -9 -5 -8 110 69 106 c 1
 69 216 l 2
 69 246 90 255 90 255 c 1
 35 255 l 1
 40 432 332 434 332 265 c 2
 332 -157 l 1
65 21 m 0
 65 21 l 0
 104 21 104 79 65 79 c 0
 26 79 26 21 65 21 c 0
171 -62 m 1
 154 -56 137 -54 123 -54 c 0
 102 -54 82 -61 82 -82 c 0
 82 -106 105 -110 120 -110 c 0
 151 -110 166 -79 171 -62 c 1
EndSplineSet
EndChar
StartChar: uni0E0F
Encoding: 175 3599 142
Width: 399
Flags: HW
HStem: -72 28<36.5 58.5> 256 28
VStem: -14 32 69 51<106 216 216 222> 281 51<-101 265>
Fore
65 21 m 0
 65 21 l 0
 104 21 104 79 65 79 c 0
 26 79 26 21 65 21 c 0
89 -84 m 0
 89 -84 l 0
 77 -76 64 -72 53 -72 c 0
 20 -72 14 -88 14 -100 c 0
 14 -113 23 -131 50 -129 c 0
 71 -127 79 -107 89 -84 c 0
101 -58 m 1
 110 -41 123 -26 145 -17 c 1
 164 -35 l 1
 145 -43 133 -58 125 -75 c 1
 142 -89 156 -107 162 -122 c 1
 185 -67 247 -60 281 -101 c 1
 281 265 l 2
 281 391 97 381 69 284 c 1
 181 284 l 1
 181 255 l 1
 150 255 l 2
 119 255 120 222 120 222 c 1
 120 52 l 2
 120 16 96 -5 65 -5 c 0
 -9 -5 -9 110 69 106 c 1
 69 216 l 2
 69 248 91 255 91 255 c 1
 35 255 l 1
 40 432 332 434 332 265 c 2
 332 -157 l 1
 284 -157 l 1
 260 -89 194 -89 176 -156 c 1
 146 -156 l 1
 143 -137 129 -117 112 -102 c 1
 99 -128 86 -152 51 -156 c 0
 1 -161 -14 -121 -14 -101 c 0
 -14 -62 18 -44 53 -44 c 0
 69 -44 85 -49 101 -58 c 1
EndSplineSet
EndChar
StartChar: uni0E10
Encoding: 176 3600 143
Width: 331
Flags: HW
HStem: -152 20 -121 20 -5 28<181.5 198.5>
VStem: 116 51 214 51
Fore
294 372 m 0
 294 372 l 0
 273 300 201 319 189 323 c 0
 98 352 70 349 53 307 c 1
 233 261 l 1
 243 256 265 255 265 216 c 2
 265 69 l 2
 265 27 241 -5 190 -5 c 0
 148 -5 116 29 116 69 c 2
 116 129 l 1
 108 125 100 124 90 124 c 0
 55 124 34 151 35 182 c 1
 38 211 58 233 90 233 c 0
 142 234 165 208 165 176 c 2
 165 51 l 2
 165 38 173 23 190 23 c 0
 207 23 215 38 215 50 c 2
 215 209 l 2
 215 230 211 237 196 241 c 2
 18 286 l 1
 26 311 48 389 120 387 c 0
 164 387 251 343 285 379 c 0
 291 385 297 382 294 372 c 0
265 -142 m 1
 265 -142 l 0
 265 -158 258 -180 231 -180 c 2
 113 -180 l 1
 113 -147 l 2
 113 -129 111 -114 97 -97 c 1
 98 -105 99 -152 52 -152 c 0
 31 -152 16 -139 10 -116 c 0
 3 -87 27 -53 74 -63 c 1
 74 -63 73 -47 80 -37 c 1
 103 -40 l 1
 92 -53 99 -72 99 -72 c 1
 141 -88 140 -145 140 -145 c 1
 194 -145 l 2
 201 -145 212 -140 212 -131 c 2
 212 -121 l 1
 210 -121 205 -126 191 -125 c 0
 134 -120 137 -29 197 -30 c 0
 237 -30 261 -49 265 -85 c 1
 265 -142 l 1
90 149 m 0
 90 149 l 0
 129 149 129 208 90 208 c 0
 52 208 52 149 90 149 c 0
197 -102 m 0
 197 -102 l 0
 228 -102 228 -54 197 -54 c 0
 164 -54 164 -102 197 -102 c 0
74 -86 m 1
 74 -86 60 -83 50 -83 c 0
 22 -86 23 -129 52 -129 c 0
 67 -129 79 -111 74 -86 c 1
EndSplineSet
KernsSLIF: 209 30 1 0 213 30 1 0 214 30 1 0 215 30 1 0 212 30 1 0
EndChar
StartChar: uni0E11
Encoding: 177 3601 144
Width: 508
Flags: HW
HStem: 0 20 341 44
VStem: 188 51 388 51<0 302>
Fore
189 300 m 1
 189 300 l 0
 189 322 184 341 170 341 c 1
 123 294 l 1
 77 341 l 1
 57 341 42 314 47 269 c 1
 47 269 56 282 79 282 c 0
 147 282 146 182 78 182 c 0
 21 182 10 254 17 306 c 0
 24 355 51 378 77 386 c 1
 123 335 l 1
 171 385 l 1
 214 382 241 349 241 300 c 1
 239 120 l 1
 293 324 l 1
 312 418 445 402 439 302 c 1
 439 0 l 1
 388 0 l 1
 388 305 l 1
 392 358 328 358 315 314 c 1
 236 0 l 1
 187 0 l 1
 189 300 l 1
79 203 m 0
 118 203 118 260 79 260 c 0
 41 260 43 203 79 203 c 0
EndSplineSet
EndChar
StartChar: uni0E12
Encoding: 178 3602 145
Width: 522
Flags: HW
HStem: -5 20 98 28<315 315> 167 20
VStem: 24 32 66 51<0 56> 264 51<41 54.5 54.5 98 128 258> 401 51<57 345 345 345>
Fore
161 191 m 0
 161 191 l 0
 206 191 206 257 161 257 c 0
 119 257 119 191 161 191 c 0
264 41 m 0
 264 98 l 0
 237 99 225 47 244 32 c 0
 250 28 266 24 264 41 c 0
264 261 m 2
 264 314 257 335 227 350 c 1
 169 305 l 1
 109 350 l 1
 82 338 55 309 55 250 c 0
 55 234 67 196 79 177 c 1
 108 125 104 114 107 108 c 1
 117 130 173 167 164 167 c 0
 124 167 104 194 104 225 c 0
 104 233 110 282 161 283 c 0
 210 283 243 242 216 184 c 0
 191 134 123 110 117 56 c 1
 117 0 l 1
 66 0 l 1
 66 61 l 2
 66 143 24 194 24 250 c 0
 24 346 80 376 112 387 c 1
 169 341 l 1
 225 387 l 1
 260 379 315 356 315 258 c 2
 315 126 l 1
 315 126 380 103 401 57 c 1
 401 345 l 1
 434 383 l 1
 441 388 452 392 452 369 c 0
 452 368 452 29 452 0 c 1
 400 0 l 1
 395 38 346 85 315 98 c 1
 315 83 315 56 315 53 c 0
 315 21 306 -5 262 -5 c 0
 179 -5 185 124 264 128 c 1
 264 261 l 2
EndSplineSet
EndChar
StartChar: uni0E13
Encoding: 179 3603 146
Width: 521
Flags: HW
HStem: -5 20 256 28
VStem: 62 51 256 51 401 51<114 118 118 345 345 345>
Fore
452 118 m 0
 452 118 l 0
 452 110 444 104 444 104 c 1
 497 91 496 -5 427 -5 c 0
 399 -5 380 9 374 34 c 1
 365 61 384 86 384 86 c 1
 329 77 311 12 308 0 c 1
 255 0 l 1
 255 267 l 2
 255 395 83 371 63 284 c 1
 174 284 l 1
 174 255 l 1
 167 255 143 255 142 255 c 0
 113 255 114 218 114 218 c 1
 114 216 114 101 114 101 c 1
 207 132 223 -1 138 -5 c 0
 75 -8 62 45 62 71 c 2
 62 212 l 2
 62 245 85 255 85 255 c 1
 29 255 l 1
 33 420 296 442 307 271 c 1
 307 66 l 1
 307 66 335 115 401 110 c 1
 401 345 l 1
 433 383 l 1
 440 388 452 392 452 369 c 0
 452 368 452 126 452 118 c 0
427 21 m 0
 427 21 l 0
 466 21 466 79 427 79 c 0
 387 79 387 21 427 21 c 0
138 21 m 0
 179 21 179 79 138 79 c 0
 99 79 99 21 138 21 c 0
EndSplineSet
KernsSLIF: 218 -30 1 0 217 -30 1 0 216 -30 1 0 209 -30 1 0 213 -30 1 0 214 -30 1 0 215 -30 1 0 212 -30 1 0
EndChar
StartChar: uni0E14
Encoding: 180 3604 147
Width: 397
Flags: HW
HStem: 0 20 178 20 361 28
VStem: 33 32 74 51 279 51
Fore
330 0 m 1
 280 0 l 1
 280 258 l 2
 280 310 252 359 176 359 c 0
 137 359 64 336 64 250 c 0
 64 200 106 159 116 108 c 1
 126 132 186 178 178 178 c 0
 123 177 117 223 117 235 c 0
 117 246 123 291 175 292 c 0
 222 293 256 250 228 193 c 0
 204 143 131 110 124 56 c 1
 124 0 l 1
 74 0 l 1
 74 61 l 2
 74 143 33 194 33 250 c 0
 33 347 116 389 176 389 c 0
 201 389 330 387 330 258 c 2
 330 0 l 1
175 201 m 0
 219 201 219 266 175 266 c 0
 130 266 130 201 175 201 c 0
EndSplineSet
EndChar
StartChar: uni0E15
Encoding: 181 3605 148
Width: 397
Flags: HW
HStem: 0 20
VStem: 33 32 74 51 279 51
Fore
330 0 m 1
 280 0 l 1
 280 271 l 2
 280 323 266 335 239 350 c 1
 181 305 l 1
 121 350 l 1
 98 344 64 309 64 250 c 0
 64 234 75 196 87 177 c 0
 117 125 117 108 119 113 c 0
 129 132 178 168 170 168 c 0
 118 168 110 212 110 226 c 0
 110 241 119 282 170 283 c 0
 217 283 250 242 223 184 c 0
 199 134 131 102 124 48 c 1
 124 0 l 1
 74 0 l 1
 74 61 l 2
 74 143 33 194 33 250 c 0
 33 343 89 374 124 387 c 1
 181 341 l 1
 237 387 l 1
 271 380 330 353 330 258 c 2
 330 0 l 1
170 191 m 0
 214 191 214 257 170 257 c 0
 126 257 126 191 170 191 c 0
EndSplineSet
EndChar
StartChar: uni0E16
Encoding: 182 3606 149
Width: 392
Flags: HW
HStem: -5 20 256 28
VStem: 61 51 273 51
Fore
324 0 m 1
 274 0 l 1
 274 267 l 1
 272 395 86 377 62 284 c 1
 173 284 l 1
 173 255 l 1
 166 255 142 255 141 255 c 0
 112 255 113 218 113 218 c 1
 113 216 113 101 113 101 c 1
 208 132 222 -1 138 -5 c 0
 74 -8 61 45 61 71 c 2
 61 212 l 2
 61 244 83 255 83 255 c 1
 28 255 l 1
 29 423 313 440 324 271 c 1
 324 0 l 1
138 21 m 0
 178 21 178 79 138 79 c 0
 98 79 98 21 138 21 c 0
EndSplineSet
EndChar
StartChar: uni0E17
Encoding: 183 3607 150
Width: 427
Flags: HW
HStem: 0 20
VStem: 108 51 308 51
Fore
359 0 m 1
 309 0 l 1
 309 307 l 1
 312 359 250 360 235 316 c 1
 155 0 l 1
 108 0 l 1
 108 277 l 1
 100 272 89 272 81 272 c 0
 4 272 1 387 85 387 c 0
 163 387 158 327 158 320 c 2
 158 115 l 1
 213 326 l 2
 237 419 366 404 359 304 c 1
 359 0 l 1
80 296 m 0
 124 296 124 362 80 362 c 0
 35 362 35 296 80 296 c 0
EndSplineSet
EndChar
StartChar: uni0E18
Encoding: 184 3608 151
Width: 331
Flags: HW
HStem: 0 28
VStem: 63 51<29 237> 214 51
Fore
215 209 m 2
 215 230 211 237 196 241 c 2
 18 286 l 1
 26 311 48 389 120 387 c 0
 164 387 251 343 285 379 c 0
 291 385 297 382 294 372 c 0
 273 300 201 319 189 323 c 0
 98 352 70 349 53 307 c 1
 233 261 l 1
 243 256 265 255 265 216 c 2
 265 70 l 2
 265 23 241 0 199 0 c 2
 34 0 l 1
 34 29 l 1
 63 29 l 1
 63 237 l 1
 114 237 l 1
 114 29 l 1
 163 29 l 2
 198 29 215 43 215 74 c 2
 215 209 l 2
EndSplineSet
EndChar
StartChar: uni0E19
Encoding: 185 3609 152
Width: 432
Flags: HW
HStem: -5 28 85 28
VStem: 108 51 305 51<116.5 121 121 346 346 346>
Fore
356 121 m 0
 356 121 l 0
 356 112 345 106 345 106 c 1
 400 90 397 -5 327 -5 c 0
 301 -5 282 10 275 35 c 0
 266 63 284 85 284 85 c 1
 197 86 160 10 155 0 c 1
 108 0 l 1
 108 278 l 1
 100 272 89 272 80 272 c 0
 3 270 0 389 84 389 c 0
 163 389 158 328 158 321 c 0
 158 320 158 50 158 50 c 1
 158 50 191 114 305 112 c 1
 305 346 l 1
 337 385 l 1
 343 389 356 394 356 370 c 2
 356 370 356 128 356 121 c 0
79 297 m 0
 79 297 l 0
 123 297 123 363 79 363 c 0
 34 363 34 297 79 297 c 0
328 21 m 0
 369 21 369 79 328 79 c 0
 289 79 289 21 328 21 c 0
EndSplineSet
KernsSLIF: 218 -30 1 0 217 -30 1 0 216 -30 1 0 209 -30 1 0 213 -30 1 0 214 -30 1 0 215 -30 1 0 212 -30 1 0
EndChar
StartChar: uni0E1A
Encoding: 186 3610 153
Width: 423
Flags: HW
HStem: 0 28
VStem: 108 51 304 51<77 346 346 346>
Fore
355 69 m 0
 355 69 l 0
 357 43 340 0 287 0 c 2
 72 0 l 1
 72 29 l 1
 108 29 l 1
 108 277 l 1
 103 274 89 272 81 272 c 0
 -1 272 -1 388 85 388 c 0
 163 388 158 328 158 321 c 0
 158 320 158 29 158 29 c 1
 260 29 l 2
 282 29 306 43 304 77 c 1
 304 346 l 1
 337 384 l 1
 344 389 356 393 355 370 c 0
 355 369 355 71 355 69 c 0
79 297 m 0
 123 297 123 363 79 363 c 0
 34 363 34 297 79 297 c 0
EndSplineSet
EndChar
StartChar: uni0E1B
Encoding: 187 3611 154
Width: 433
Flags: HW
HStem: 0 28
VStem: 108 51 314 51<77 593 593 593>
Fore
365 69 m 0
 365 69 l 0
 367 43 350 0 297 0 c 2
 72 0 l 1
 72 29 l 1
 108 29 l 1
 108 277 l 1
 103 274 89 272 81 272 c 0
 -1 272 -1 388 85 388 c 0
 163 388 158 328 158 321 c 0
 158 320 158 29 158 29 c 1
 270 29 l 2
 292 29 316 43 314 77 c 1
 314 593 l 1
 347 631 l 1
 354 636 366 640 365 617 c 0
 365 616 365 71 365 69 c 0
79 297 m 0
 123 297 123 363 79 363 c 0
 34 363 34 297 79 297 c 0
EndSplineSet
EndChar
StartChar: uni0E1C
Encoding: 188 3612 155
Width: 423
Flags: HW
HStem: 0 20
VStem: 60 51 304 51<0 14 14 21 77 345 345 345>
Fore
355 0 m 1
 304 0 l 1
 304 14 l 2
 304 28 298 33 296 38 c 1
 208 206 l 1
 119 38 l 1
 117 33 112 29 112 14 c 2
 112 0 l 1
 60 0 l 1
 60 319 l 2
 60 348 78 389 142 387 c 0
 224 384 208 247 112 282 c 1
 112 75 l 1
 208 261 l 1
 304 77 l 1
 304 345 l 1
 337 383 l 1
 344 388 356 392 355 369 c 0
 355 368 355 0 355 0 c 1
142 301 m 0
 184 301 184 364 142 364 c 0
 98 364 98 301 142 301 c 0
EndSplineSet
EndChar
StartChar: uni0E1D
Encoding: 189 3613 156
Width: 433
Flags: HW
HStem: 0 20
VStem: 60 51 314 51<0 11 11 18 77 587 587 587>
Fore
365 0 m 1
 314 0 l 1
 314 11 l 2
 314 25 308 30 306 35 c 1
 213 212 l 1
 119 35 l 1
 117 30 112 26 112 11 c 2
 112 0 l 1
 60 0 l 1
 60 319 l 2
 60 348 78 389 142 387 c 0
 224 384 208 247 112 282 c 1
 112 76 l 1
 213 265 l 1
 314 77 l 1
 314 587 l 1
 347 625 l 1
 353 630 365 634 365 609 c 2
 365 0 l 1
142 301 m 0
 184 301 184 364 142 364 c 0
 98 364 98 301 142 301 c 0
EndSplineSet
EndChar
StartChar: uni0E1E
Encoding: 190 3614 157
Width: 471
Flags: HW
HStem: 0 20
VStem: 109 51 352 51
Fore
403 0 m 1
 349 0 l 1
 256 319 l 1
 162 0 l 1
 109 0 l 1
 109 276 l 1
 104 273 90 271 82 271 c 0
 4 271 2 387 86 387 c 0
 164 387 159 327 159 320 c 0
 159 319 159 75 159 75 c 1
 247 383 l 1
 265 383 l 1
 353 75 l 1
 353 348 l 1
 386 386 l 1
 393 391 404 395 403 372 c 0
 403 371 403 0 403 0 c 1
80 296 m 0
 124 296 124 362 80 362 c 0
 35 362 35 296 80 296 c 0
EndSplineSet
EndChar
StartChar: uni0E1F
Encoding: 191 3615 158
Width: 471
Flags: HW
HStem: 0 20
VStem: 109 51 352 51
Fore
403 0 m 1
 349 0 l 1
 256 319 l 1
 162 0 l 1
 109 0 l 1
 109 276 l 1
 104 273 90 271 82 271 c 0
 4 271 2 387 86 387 c 0
 164 387 159 327 159 320 c 0
 159 319 159 72 159 72 c 1
 247 385 l 1
 265 385 l 1
 353 72 l 1
 353 587 l 1
 386 626 l 2
 390 631 403 635 403 610 c 2
 403 0 l 1
80 296 m 0
 124 296 124 362 80 362 c 0
 35 362 35 296 80 296 c 0
EndSplineSet
EndChar
StartChar: uni0E20
Encoding: 192 3616 159
Width: 403
Flags: HW
HStem: -3 20 256 28
VStem: 84 51 285 51<0 12 12 267 267 271>
Fore
336 0 m 0
 285 0 l 1
 285 267 l 2
 285 392 98 378 73 284 c 1
 187 284 l 1
 187 255 l 1
 163 255 l 2
 133 255 134 222 134 222 c 1
 134 54 l 2
 134 18 110 -3 80 -3 c 0
 6 -3 5 112 84 108 c 1
 84 216 l 2
 84 247 105 255 105 255 c 1
 39 255 l 1
 40 424 326 440 336 271 c 1
 336 271 336 24 336 0 c 0
80 23 m 0
 119 23 119 81 80 81 c 0
 39 81 39 23 80 23 c 0
EndSplineSet
EndChar
StartChar: uni0E21
Encoding: 193 3617 160
Width: 421
Flags: HW
HStem: -3 20
VStem: 108 51 302 51
Fore
353 0 m 0
 301 0 l 0
 252 83 159 96 159 96 c 1
 161 33 159 -3 104 -3 c 0
 11 -4 16 137 108 136 c 1
 108 276 l 1
 102 272 89 271 81 271 c 0
 4 271 1 387 85 387 c 0
 163 387 158 327 158 320 c 0
 158 319 158 132 158 132 c 1
 158 132 245 113 303 52 c 1
 303 345 l 1
 336 384 l 1
 341 388 354 393 353 369 c 0
 353 368 353 29 353 0 c 0
79 296 m 0
 79 296 l 0
 123 296 123 362 79 362 c 0
 34 362 34 296 79 296 c 0
108 44 m 1
 108 102 l 1
 59 109 57 47 81 32 c 1
 88 29 109 25 108 44 c 1
EndSplineSet
EndChar
StartChar: uni0E22
Encoding: 194 3618 161
Width: 378
Flags: HW
HStem: -5 36 200 28
VStem: 56 51<103 149 148.5 149> 259 51
Fore
310 100 m 1
 310 100 l 0
 310 34 260 -5 185 -5 c 0
 111 -5 56 34 56 103 c 2
 56 103 56 148 56 149 c 0
 59 187 82 204 104 211 c 1
 82 213 62 233 57 247 c 0
 47 275 46 306 56 332 c 0
 70 369 93 389 138 389 c 0
 212 389 213 277 138 275 c 0
 114 275 104 284 104 284 c 1
 103 253 121 228 154 228 c 2
 173 228 l 1
 173 201 l 1
 155 201 l 2
 127 201 107 180 107 151 c 2
 107 99 l 2
 107 56 139 30 186 30 c 0
 235 30 260 54 260 95 c 0
 260 98 260 353 260 346 c 1
 291 386 l 1
 297 391 311 395 310 370 c 1
 310 100 l 1
138 300 m 0
 183 300 183 366 138 366 c 0
 94 366 94 300 138 300 c 0
EndSplineSet
EndChar
StartChar: uni0E23
Encoding: 195 3619 162
Width: 301
Flags: HW
HStem: -2 20
VStem: 173 51
Fore
274 375 m 0
 274 375 l 0
 256 305 189 326 187 327 c 0
 99 354 71 353 52 307 c 1
 192 271 l 2
 201 269 224 260 224 239 c 2
 224 66 l 2
 224 58 230 -2 150 -2 c 0
 66 -2 71 115 147 114 c 0
 155 114 166 113 174 106 c 1
 174 224 l 1
 175 237 174 248 157 252 c 2
 20 288 l 1
 27 310 52 387 119 387 c 0
 168 387 233 346 264 383 c 0
 269 388 277 387 274 375 c 0
147 23 m 0
 191 23 191 90 147 90 c 0
 102 90 102 23 147 23 c 0
EndSplineSet
KernsSLIF: 209 30 1 0 213 30 1 0 214 30 1 0 215 30 1 0 212 30 1 0
EndChar
StartChar: uni0E24
Encoding: 196 3620 163
Width: 389
Flags: HW
HStem: 256 28
VStem: 60 51 272 51<-116 267>
Fore
323 -116 m 1
 290 -154 l 0
 283 -159 271 -163 272 -140 c 0
 272 -126 272 267 272 267 c 2
 272 391 89 379 62 284 c 1
 172 284 l 1
 172 255 l 1
 165 255 141 255 140 255 c 0
 111 255 112 217 112 217 c 1
 112 215 112 103 112 103 c 1
 206 133 221 1 136 -3 c 0
 73 -6 60 47 60 73 c 2
 60 211 l 2
 60 243 82 255 82 255 c 1
 28 255 l 1
 32 430 323 436 323 267 c 2
 323 -116 l 1
136 23 m 0
 177 23 177 81 136 81 c 0
 97 81 97 23 136 23 c 0
EndSplineSet
EndChar
StartChar: uni0E25
Encoding: 197 3621 164
Width: 377
Flags: HW
HStem: -3 20 265 28
VStem: 55 51<103 188> 259 51
Fore
310 0 m 1
 260 0 l 1
 260 188 l 2
 260 230 225 261 181 261 c 0
 134 261 106 226 106 188 c 2
 106 103 l 1
 200 134 215 1 131 -3 c 0
 74 -5 55 43 55 70 c 2
 55 191 l 2
 55 242 100 293 167 293 c 0
 228 293 261 257 261 257 c 1
 267 339 200 351 165 351 c 0
 114 351 67 329 39 289 c 1
 21 304 l 1
 114 446 310 392 310 282 c 2
 310 0 l 1
128 21 m 0
 171 21 171 84 128 84 c 0
 85 84 85 21 128 21 c 0
EndSplineSet
EndChar
StartChar: uni0E26
Encoding: 198 3622 165
Width: 398
Flags: HW
HStem: 256 28
VStem: 69 51<108 212 212 218> 281 51<-116 267>
Fore
332 -116 m 1
 299 -154 l 0
 292 -159 280 -163 281 -140 c 0
 281 -126 281 267 281 267 c 2
 281 393 94 377 70 284 c 1
 181 284 l 1
 181 255 l 1
 150 255 l 2
 119 255 120 218 120 218 c 1
 120 54 l 2
 120 18 96 -3 65 -3 c 0
 -13 -3 -13 112 69 108 c 1
 69 212 l 2
 69 244 91 255 91 255 c 1
 36 255 l 1
 39 429 332 436 332 267 c 2
 332 -116 l 1
65 23 m 0
 104 23 104 81 65 81 c 0
 26 81 26 23 65 23 c 0
EndSplineSet
EndChar
StartChar: uni0E27
Encoding: 199 3623 166
Width: 329
Flags: HW
HStem: -3 20 85 20 353 36
VStem: 210 51<101 285>
Fore
261 77 m 1
 261 77 l 0
 261 27 241 -3 180 -3 c 0
 150 -3 127 21 126 50 c 0
 125 81 145 107 180 108 c 0
 194 108 200 106 210 101 c 1
 210 285 l 2
 210 327 172 355 129 355 c 0
 72 355 42 315 35 306 c 1
 12 312 l 1
 15 327 53 389 141 389 c 0
 203 389 261 346 261 285 c 2
 261 77 l 1
182 20 m 0
 226 20 226 85 182 85 c 0
 139 85 139 20 182 20 c 0
EndSplineSet
EndChar
StartChar: uni0E28
Encoding: 200 3624 167
Width: 384
Flags: HW
HStem: 0 20 178 20 269 20<137 174> 362 28
VStem: 23 32 66 51<0 146 146 149> 267 51
Fore
166 201 m 0
 166 201 l 0
 210 201 210 265 166 265 c 0
 123 265 123 201 166 201 c 0
259 308 m 0
 259 308 l 0
 243 348 204 360 160 360 c 0
 97 360 53 312 53 269 c 0
 53 240 62 218 81 209 c 1
 88 245 110 289 164 289 c 0
 184 289 199 281 208 270 c 1
 225 278 243 291 259 308 c 0
309 314 m 1
 315 300 318 282 318 261 c 2
 318 0 l 1
 268 0 l 1
 268 261 l 2
 268 266 268 270 267 275 c 1
 252 263 236 254 220 246 c 1
 227 215 208 178 163 178 c 0
 138 178 124 196 124 196 c 1
 118 182 117 160 117 149 c 2
 117 0 l 1
 66 0 l 1
 66 146 l 2
 66 173 23 202 23 269 c 0
 23 338 84 390 161 390 c 0
 210 390 256 380 286 349 c 1
 295 368 300 391 300 417 c 1
 300 417 349 418 349 417 c 0
 349 379 333 344 309 314 c 1
EndSplineSet
EndChar
StartChar: uni0E29
Encoding: 201 3625 168
Width: 433
Flags: HW
HStem: 0 28 224 28
VStem: 107 51<29 138 246 246.5 246.5 277 277 277> 314 51
Fore
81 296 m 0
 81 296 l 0
 125 296 125 362 81 362 c 0
 36 362 36 296 81 296 c 0
182 166 m 0
 182 166 l 0
 221 166 221 225 182 225 c 0
 142 225 142 166 182 166 c 0
158 138 m 0
 158 29 l 1
 275 29 l 2
 297 29 316 45 316 66 c 2
 316 156 l 1
 296 110 203 84 158 138 c 0
316 224 m 2
 316 345 l 1
 349 384 l 2
 353 388 367 392 365 369 c 0
 365 368 365 68 365 67 c 0
 368 33 348 0 308 0 c 2
 72 0 l 1
 72 29 l 1
 107 29 l 1
 107 277 l 1
 99 272 89 272 81 272 c 0
 4 272 1 387 85 387 c 0
 163 387 158 327 158 320 c 2
 158 320 158 247 158 246 c 1
 165 250 172 252 181 252 c 0
 207 253 233 239 238 214 c 0
 248 167 222 146 199 144 c 1
 262 116 316 178 316 224 c 2
EndSplineSet
EndChar
StartChar: uni0E2A
Encoding: 202 3626 169
Width: 377
Flags: HW
HStem: -3 20
VStem: 55 51<103 173> 259 51
Fore
128 21 m 0
 128 21 l 0
 171 21 171 84 128 84 c 0
 85 84 85 21 128 21 c 0
238 326 m 0
 238 326 l 0
 186 371 77 350 39 289 c 1
 21 304 l 1
 94 416 219 399 271 359 c 1
 284 375 295 395 300 417 c 1
 349 417 l 1
 343 383 321 355 295 332 c 1
 306 314 310 297 310 279 c 2
 310 0 l 1
 260 0 l 1
 260 163 l 2
 260 205 225 246 181 246 c 0
 134 246 106 211 106 173 c 2
 106 103 l 1
 200 134 215 1 131 -3 c 0
 74 -5 55 43 55 70 c 2
 55 176 l 2
 55 218 89 269 150 277 c 1
 178 288 210 304 238 326 c 0
190 276 m 1
 241 266 261 232 261 232 c 1
 261 240 261 272 261 275 c 0
 261 284 259 294 256 303 c 1
 232 290 208 280 190 276 c 1
EndSplineSet
EndChar
StartChar: uni0E2B
Encoding: 203 3627 170
Width: 426
Flags: HW
HStem: 0 307<318 337.5>
VStem: 102 51<0 71> 307 51<0 245 245 250>
Fore
358 0 m 1
 307 0 l 1
 307 245 l 2
 307 264 294 275 294 275 c 1
 219 229 166 124 161 112 c 0
 156 96 153 83 153 71 c 2
 153 0 l 1
 102 0 l 1
 102 281 l 1
 95 273 84 272 74 272 c 0
 -1 272 -6 387 80 387 c 0
 157 387 152 327 152 320 c 2
 152 159 l 1
 198 247 279 297 279 297 c 1
 249 331 270 387 318 387 c 0
 383 387 384 305 341 287 c 1
 341 287 358 272 358 250 c 2
 358 0 l 1
318 307 m 0
 318 307 l 0
 357 307 357 365 318 365 c 0
 280 365 280 307 318 307 c 0
72 296 m 0
 117 296 117 362 72 362 c 0
 28 362 28 296 72 296 c 0
EndSplineSet
EndChar
StartChar: uni0E2C
Encoding: 204 3628 171
Width: 466
Flags: HW
HStem: 0 20
VStem: 103 51<79 281 281 281> 347 51
Fore
455 429 m 1
 455 429 l 0
 453 349 398 327 398 327 c 1
 398 0 l 1
 346 0 l 1
 244 277 l 1
 154 0 l 1
 103 0 l 1
 103 281 l 1
 96 273 83 272 75 272 c 0
 0 272 -5 387 81 387 c 0
 158 387 154 327 154 320 c 2
 154 79 l 1
 244 362 l 1
 346 82 l 1
 346 309 l 1
 269 309 268 420 344 420 c 0
 404 420 399 366 399 366 c 1
 417 395 414 416 412 429 c 1
 455 429 l 1
344 336 m 0
 344 336 l 0
 382 336 382 395 344 395 c 0
 305 395 305 336 344 336 c 0
73 296 m 0
 118 296 118 362 73 362 c 0
 29 362 29 296 73 296 c 0
EndSplineSet
EndChar
StartChar: uni0E2D
Encoding: 205 3629 172
Width: 378
Flags: HW
HStem: -5 20 359 28
VStem: 54 51<96 182> 260 51
Fore
311 95 m 1
 311 95 l 0
 311 12 215 -5 179 -5 c 0
 134 -5 54 10 54 96 c 2
 54 213 l 2
 54 239 72 293 130 290 c 0
 215 286 201 150 105 182 c 1
 105 86 l 1
 106 3 258 1 259 86 c 1
 259 274 l 2
 259 315 225 357 163 357 c 0
 92 357 65 323 46 302 c 1
 27 316 l 1
 49 343 87 387 166 387 c 0
 252 387 311 338 311 279 c 2
 311 95 l 1
130 201 m 0
 175 201 175 266 130 266 c 0
 85 266 85 201 130 201 c 0
EndSplineSet
EndChar
StartChar: uni0E2E
Encoding: 206 3630 173
Width: 378
Flags: HW
HStem: -5 20 360 28<143.5 180.5>
VStem: 54 51<96 127> 260 51
Fore
317 392 m 1
 317 392 l 0
 312 369 305 353 293 336 c 1
 305 322 311 298 311 279 c 2
 311 95 l 2
 311 12 215 -5 179 -5 c 0
 134 -5 54 10 54 96 c 2
 54 158 l 2
 54 184 72 238 130 235 c 0
 215 231 201 95 105 127 c 1
 105 86 l 1
 106 3 258 1 259 86 c 1
 259 274 l 2
 259 281 260 293 257 300 c 1
 189 241 59 250 45 310 c 0
 35 354 103 388 160 388 c 0
 214 388 249 368 258 364 c 1
 262 372 264 380 264 392 c 1
 317 392 l 1
239 331 m 0
 239 331 l 0
 227 346 202 360 159 360 c 0
 128 360 67 345 75 313 c 0
 84 277 196 272 239 331 c 0
130 146 m 0
 175 146 175 211 130 211 c 0
 85 211 85 146 130 146 c 0
EndSplineSet
EndChar
StartChar: uni0E2F
Encoding: 207 3631 174
Width: 351
Flags: HW
HStem: 367 20<48.5 90.5>
VStem: 226 51<2 303 303 303 378.5 385>
Fore
277 2 m 1
 226 2 l 1
 226 303 l 1
 169 253 72 267 46 285 c 0
 -2 319 21 387 76 387 c 0
 105 387 125 372 132 347 c 0
 140 320 124 301 124 301 c 1
 218 294 226 372 226 385 c 1
 277 385 l 1
 277 2 l 1
78 303 m 0
 117 303 117 362 78 362 c 0
 38 362 38 303 78 303 c 0
EndSplineSet
EndChar
StartChar: uni0E30
Encoding: 208 3632 175
Width: 300
Flags: HW
HStem: 92 20 360 20<62.5 98>
Fore
249 377 m 1
 249 377 l 0
 237 290 168 264 101 272 c 1
 101 272 44 276 35 320 c 0
 31 339 39 380 86 380 c 0
 110 380 129 367 134 343 c 0
 139 317 126 300 126 300 c 1
 179 296 207 325 209 377 c 1
 249 377 l 1
249 110 m 1
 249 110 l 0
 237 23 168 -2 101 5 c 1
 101 5 44 9 35 53 c 0
 31 72 39 113 86 113 c 0
 110 113 129 100 134 76 c 0
 139 50 126 33 126 33 c 1
 179 29 207 58 209 110 c 1
 249 110 l 1
85 305 m 0
 85 305 l 0
 121 305 121 359 85 359 c 0
 48 359 48 305 85 305 c 0
85 38 m 0
 121 38 121 92 85 92 c 0
 48 92 48 38 85 38 c 0
EndSplineSet
EndChar
StartChar: uni0E31
Encoding: 209 3633 176
Width: 0
Flags: HW
HStem: 568 28
Fore
92 593 m 1
 92 593 l 0
 54 428 -132 407 -209 480 c 0
 -264 532 -230 597 -177 596 c 0
 -151 596 -127 583 -120 555 c 0
 -107 504 -150 485 -150 485 c 1
 -54 450 20 501 34 593 c 1
 92 593 l 1
-176 509 m 0
 -137 509 -137 569 -176 569 c 0
 -217 569 -217 509 -176 509 c 0
EndSplineSet
EndChar
StartChar: uni0E32
Encoding: 210 3634 177
Width: 278
Flags: HW
HStem: 364 28
VStem: 161 51
Fore
212 2 m 1
 160 2 l 1
 160 299 l 2
 160 335 138 363 98 363 c 0
 54 363 22 336 12 325 c 1
 12 353 l 1
 24 366 54 392 105 392 c 0
 173 392 212 363 212 302 c 2
 212 2 l 1
EndSplineSet
EndChar
StartChar: uni0E33
Encoding: 211 3635 178
Width: 278
Flags: HW
HStem: 364 28
VStem: 161 51
Fore
-86 446 m 0
 -86 446 l 0
 -169 446 -169 570 -86 570 c 0
 -4 570 -4 446 -86 446 c 0
212 2 m 1
 160 2 l 1
 160 299 l 2
 160 335 138 363 98 363 c 0
 54 363 22 336 12 325 c 1
 12 353 l 1
 24 366 54 392 105 392 c 0
 173 392 212 363 212 302 c 2
 212 2 l 1
-53 507 m 0
 -53 526 -68 540 -86 540 c 0
 -105 540 -119 526 -119 507 c 0
 -119 489 -105 474 -86 474 c 0
 -68 474 -53 489 -53 507 c 0
EndSplineSet
EndChar
StartChar: uni0E34
Encoding: 212 3636 179
Width: 0
Flags: HW
Fore
-55 424 m 0
 -55 424 l 0
 -82 437 -137 464 -203 475 c 0
 -272 487 -313 480 -348 474 c 1
 -330 536 -272 586 -200 581 c 0
 -115 575 -61 518 -55 424 c 0
-91 467 m 1
 -116 526 -155 545 -202 549 c 0
 -247 553 -280 534 -298 506 c 1
 -270 509 -239 508 -203 503 c 0
 -145 495 -91 467 -91 467 c 1
EndSplineSet
EndChar
StartChar: uni0E35
Encoding: 213 3637 180
Width: 0
Flags: HW
VStem: -120 51
Fore
-118 553 m 0
 -118 619 l 1
 -69 619 l 1
 -69 619 -69 490 -69 489 c 0
 -61 470 -57 448 -55 424 c 5
 -82 437 -137 464 -203 475 c 0
 -272 487 -313 480 -348 474 c 1
 -330 536 -272 586 -200 581 c 0
 -168 579 -140 569 -118 553 c 0
-91 467 m 1
 -116 526 -155 545 -202 549 c 0
 -247 553 -280 534 -298 506 c 1
 -270 509 -239 508 -203 503 c 0
 -145 495 -91 467 -91 467 c 1
EndSplineSet
EndChar
StartChar: uni0E36
Encoding: 214 3638 181
Width: 0
Flags: HW
Fore
-55 424 m 0
 -55 424 l 0
 -95 445 -160 470 -211 476 c 1
 -280 487 -321 479 -347 474 c 1
 -333 535 -273 585 -202 582 c 1
 -172 579 -150 569 -150 569 c 1
 -151 581 -142 619 -93 619 c 0
 -21 619 -18 522 -78 508 c 1
 -78 508 -58 476 -55 424 c 0
-93 534 m 0
 -93 534 l 0
 -55 534 -55 590 -93 590 c 0
 -132 590 -132 534 -93 534 c 0
-91 467 m 1
 -116 526 -155 545 -202 549 c 0
 -247 553 -280 534 -298 506 c 1
 -270 509 -239 508 -203 503 c 0
 -145 495 -91 467 -91 467 c 1
EndSplineSet
EndChar
StartChar: uni0E37
Encoding: 215 3639 182
Width: 0
Flags: HW
HStem: 540 79
Fore
-54 422 m 0
 -54 422 l 0
 -99 445 -152 465 -210 474 c 0
 -268 483 -307 480 -346 472 c 1
 -316 578 -202 570 -202 570 c 1
 -201 619 l 1
 -156 619 l 1
 -155 562 l 1
 -130 555 -114 541 -114 541 c 1
 -113 619 l 1
 -69 619 l 1
 -68 484 l 1
 -68 484 -57 465 -54 422 c 0
-92 465 m 1
 -110 513 -146 536 -202 540 c 0
 -239 543 -277 531 -300 503 c 1
 -273 507 -242 505 -201 500 c 0
 -148 493 -92 465 -92 465 c 1
EndSplineSet
EndChar
StartChar: uni0E38
Encoding: 216 3640 183
Width: 0
Flags: HW
VStem: -119 51<-200 -139 -139 -139>
Fore
-68 -200 m 1
 -119 -200 l 1
 -119 -139 l 1
 -122 -140 -128 -143 -142 -143 c 0
 -207 -142 -207 -50 -142 -45 c 0
 -101 -43 -71 -62 -68 -101 c 1
 -68 -200 l 1
-142 -120 m 0
 -107 -120 -107 -68 -142 -68 c 0
 -177 -68 -177 -120 -142 -120 c 0
EndSplineSet
EndChar
StartChar: uni0E39
Encoding: 217 3641 184
Width: 0
Flags: HW
HStem: -200 20 -134 20 -65 20<-247.5 -196.5 -119 -68 -68 -68>
VStem: -195 32 -119 51<-155 -138 -138 -45>
Fore
-68 -138 m 1
 -68 -138 l 0
 -68 -172 -89 -200 -129 -200 c 0
 -169 -200 -195 -179 -195 -147 c 2
 -195 -131 l 1
 -198 -132 -202 -134 -216 -134 c 0
 -279 -133 -279 -45 -216 -45 c 0
 -177 -45 -161 -69 -162 -102 c 1
 -162 -155 l 1
 -164 -167 -154 -178 -141 -178 c 0
 -127 -178 -119 -170 -119 -155 c 2
 -119 -45 l 1
 -68 -45 l 1
 -68 -138 l 1
-193 -91 m 0
 -193 -76 -204 -66 -217 -66 c 0
 -231 -66 -243 -76 -243 -91 c 0
 -243 -103 -231 -116 -217 -116 c 0
 -204 -116 -193 -103 -193 -91 c 0
EndSplineSet
EndChar
StartChar: uni0E3A
Encoding: 218 3642 185
Width: 0
Flags: HW
Fore
-92 -105 m 0
 -139 -105 -139 -36 -92 -36 c 0
 -48 -36 -49 -105 -92 -105 c 0
EndSplineSet
EndChar
StartChar: zerospace
Encoding: 220 8203 186
Width: 520
Flags: HW
HStem: 0 39<64 401>
VStem: 64 43<-119 -22> 434 43<-119 39>
Fore
477 -119 m 1
 434 -119 l 1
 434 -34 l 2
 434 -11 421 0 394 0 c 2
 140 0 l 2
 118 0 107 -10 107 -31 c 2
 107 -119 l 1
 64 -119 l 1
 64 39 l 1
 477 39 l 1
 477 -119 l 1
EndSplineSet
EndChar
StartChar: dottedcircle
Encoding: 221 9676 187
Width: 423
Flags: W
HStem: 3 24<223 225> 34 25<307 312> 87 24<61 66> 95 24<361 363> 184 24<37 42> 268 24<361 363> 271 25<66 68> 326 25<299 301> 331 24<132 134> 354 24<222 226>
VStem: 25 24<196 198> 49 24<99 101> 54 24<284 286> 113 25<40 42> 120 25<343 345> 211 24<15 20 366 368> 287 25<338 343> 295 24<46 48> 349 24<107 113 280 286> 372 25<192 196>
Fore
59 295 m 6
125 354 m 6
118 51 m 6
54 110 m 6
300 57 m 6
353 118 m 6
353 291 m 6
292 349 m 6
377 203 m 6
30 207 m 6
215 377 m 6
66 296 m 4
 73 296 78 290 78 284 c 4
 78 277 73 271 66 271 c 4
 59 271 54 277 54 284 c 4
 54 290 59 296 66 296 c 4
132 355 m 4
 139 355 145 350 145 343 c 4
 145 337 139 331 132 331 c 4
 126 331 120 337 120 343 c 4
 120 350 126 355 132 355 c 4
126 52 m 4
 132 52 138 46 138 40 c 4
 138 33 132 27 126 27 c 4
 119 27 113 33 113 40 c 4
 113 46 119 52 126 52 c 4
61 111 m 4
 68 111 73 106 73 99 c 4
 73 92 68 87 61 87 c 4
 54 87 49 92 49 99 c 4
 49 106 54 111 61 111 c 4
307 59 m 4
 314 59 319 53 319 46 c 4
 319 40 314 34 307 34 c 4
 301 34 295 40 295 46 c 4
 295 53 301 59 307 59 c 4
361 119 m 4
 368 119 373 114 373 107 c 4
 373 100 368 95 361 95 c 4
 354 95 349 100 349 107 c 4
 349 114 354 119 361 119 c 4
361 292 m 4
 368 292 373 287 373 280 c 4
 373 273 368 268 361 268 c 4
 354 268 349 273 349 280 c 4
 349 287 354 292 361 292 c 4
299 351 m 4
 306 351 312 345 312 338 c 4
 312 332 306 326 299 326 c 4
 293 326 287 332 287 338 c 4
 287 345 293 351 299 351 c 4
384 204 m 4
 391 204 397 199 397 192 c 4
 397 185 391 180 384 180 c 4
 378 180 372 185 372 192 c 4
 372 199 378 204 384 204 c 4
37 208 m 4
 44 208 49 203 49 196 c 4
 49 190 44 184 37 184 c 4
 30 184 25 190 25 196 c 4
 25 203 30 208 37 208 c 4
223 27 m 4
 230 27 235 22 235 15 c 4
 235 8 230 3 223 3 c 4
 217 3 211 8 211 15 c 4
 211 22 217 27 223 27 c 4
222 378 m 4
 229 378 234 372 234 366 c 4
 234 359 229 354 222 354 c 4
 216 354 210 359 210 366 c 4
 210 372 216 378 222 378 c 4
EndSplineSet
EndChar
StartChar: uni0E3F
Encoding: 223 3647 188
Width: 490
Flags: HW
HStem: 232 28 443 28
VStem: 92 66 222 42 341 66
Fore
430 130 m 0
 430 130 l 0
 430 50 365 7 264 2 c 1
 263 -69 l 1
 220 -69 l 1
 219 1 l 1
 23 2 l 1
 23 13 l 1
 82 13 92 35 92 57 c 2
 92 415 l 2
 92 436 82 459 23 460 c 1
 23 470 l 1
 44 470 217 471 219 471 c 1
 220 535 l 1
 263 535 l 1
 264 469 l 1
 346 461 407 427 407 352 c 0
 407 293 367 263 313 249 c 1
 313 245 l 1
 374 234 430 198 430 130 c 0
337 349 m 0
 337 349 l 0
 337 400 308 429 264 439 c 1
 264 264 l 1
 309 275 337 304 337 349 c 0
219 260 m 1
 219 445 l 0
 177 447 160 444 160 423 c 2
 160 260 l 1
 219 260 l 1
219 25 m 0
 219 234 l 0
 213 234 160 234 160 234 c 1
 160 65 l 2
 160 39 168 25 219 25 c 0
352 132 m 0
 352 190 311 217 264 227 c 1
 264 29 l 1
 316 38 352 65 352 132 c 0
EndSplineSet
EndChar
StartChar: uni0E40
Encoding: 224 3648 189
Width: 220
Flags: HMW
HStem: -3 20
VStem: 63 51
Fore
130 -3 m 0
 130 -3 l 0
 86 -3 63 35 63 71 c 2
 63 348 l 1
 97 386 l 1
 104 391 116 395 115 372 c 0
 115 371 115 107 115 107 c 1
 115 107 124 108 130 108 c 0
 202 108 204 -3 130 -3 c 0
130 23 m 0
 171 23 171 83 130 83 c 0
 90 83 90 23 130 23 c 0
EndSplineSet
EndChar
StartChar: uni0E41
Encoding: 225 3649 190
Width: 397
Flags: HMW
HStem: -3 20
VStem: 63 51 240 51
Fore
306 -3 m 0
 306 -3 l 0
 262 -3 239 35 239 71 c 2
 239 348 l 1
 273 386 l 1
 280 391 292 395 291 372 c 0
 291 371 291 107 291 107 c 1
 291 107 300 108 306 108 c 0
 378 108 380 -3 306 -3 c 0
130 -3 m 0
 130 -3 l 0
 86 -3 63 35 63 71 c 2
 63 348 l 1
 97 386 l 1
 104 391 116 395 115 372 c 0
 115 371 115 107 115 107 c 1
 115 107 124 108 130 108 c 0
 202 108 204 -3 130 -3 c 0
306 23 m 0
 306 23 l 0
 347 23 347 83 306 83 c 0
 266 83 266 23 306 23 c 0
130 23 m 0
 171 23 171 83 130 83 c 0
 90 83 90 23 130 23 c 0
EndSplineSet
EndChar
StartChar: uni0E42
Encoding: 226 3650 191
Width: 216
Flags: HMW
HStem: -3 20 545 79
VStem: 87 51<107 452>
Fore
217 592 m 0
 217 592 l 0
 191 506 122 550 121 550 c 0
 37 595 18 583 2 560 c 1
 109 501 l 2
 120 495 140 484 138 452 c 1
 138 107 l 1
 142 109 145 108 147 108 c 0
 218 108 219 -3 147 -3 c 0
 100 -3 87 33 87 69 c 2
 87 456 l 1
 88 468 87 481 64 493 c 2
 -34 544 l 1
 -26 561 1 622 52 624 c 0
 96 626 181 563 209 598 c 0
 214 603 220 601 217 592 c 0
147 23 m 0
 186 23 186 83 147 83 c 0
 107 83 107 23 147 23 c 0
EndSplineSet
EndChar
StartChar: uni0E43
Encoding: 227 3651 192
Width: 236
Flags: HW
HStem: -3 20 440 28 520 20<23 59> 596 28
VStem: 101 51<107 526>
Fore
160 -3 m 0
 160 -3 l 0
 115 -3 101 33 101 69 c 2
 101 528 l 2
 101 561 83 590 51 591 c 0
 13 591 -7 565 -8 523 c 1
 1 538 20 540 26 540 c 0
 92 540 92 442 25 442 c 0
 -24 442 -37 500 -35 539 c 1
 -30 586 1 624 57 624 c 0
 118 624 152 581 152 526 c 2
 152 107 l 1
 153 107 157 108 160 108 c 0
 231 108 234 -3 160 -3 c 0
26 516 m 0
 26 516 l 0
 10 516 1 506 1 492 c 0
 1 482 8 468 25 468 c 0
 58 468 57 516 26 516 c 0
160 23 m 0
 201 23 201 83 160 83 c 0
 119 83 119 23 160 23 c 0
EndSplineSet
EndChar
StartChar: uni0E44
Encoding: 228 3652 193
Width: 263
Flags: HW
HStem: -3 20 430 20<45 56> 596 28
VStem: -6 42 70 28 130 51
Fore
190 -3 m 0
 190 -3 l 0
 145 -3 132 33 132 69 c 2
 132 575 l 2
 132 589 125 598 114 598 c 0
 100 598 94 586 94 575 c 2
 94 475 l 2
 94 448 80 426 46 426 c 0
 13 425 -6 449 -6 478 c 2
 -6 592 l 2
 -6 598 -5 605 -15 615 c 0
 -23 623 -27 624 -36 632 c 1
 -43 640 -34 646 -25 640 c 1
 19 626 l 1
 33 618 32 613 32 606 c 2
 32 469 l 2
 32 458 39 450 51 450 c 0
 61 450 70 457 70 469 c 2
 70 564 l 2
 70 597 87 624 127 624 c 0
 166 624 181 595 181 567 c 2
 181 107 l 1
 184 107 188 108 190 108 c 0
 262 108 264 -3 190 -3 c 0
190 23 m 0
 232 23 232 83 190 83 c 0
 150 83 150 23 190 23 c 0
EndSplineSet
EndChar
StartChar: uni0E45
Encoding: 229 3653 194
Width: 198
Flags: HW
HStem: 364 28
VStem: 81 51
Fore
132 -115 m 1
 98 -153 l 1
 91 -158 79 -162 80 -139 c 0
 80 -125 80 299 80 299 c 2
 80 335 58 363 18 363 c 0
 -26 363 -58 336 -68 325 c 1
 -68 353 l 1
 -56 366 -26 392 25 392 c 0
 93 392 132 363 132 302 c 2
 132 -115 l 1
EndSplineSet
EndChar
StartChar: uni0E46
Encoding: 230 3654 195
Width: 458
Flags: HW
VStem: 149 32 335 51
Fore
386 -115 m 1
 354 -153 l 0
 347 -158 335 -162 336 -139 c 0
 336 -125 336 302 336 302 c 2
 336 328 327 337 312 341 c 1
 264 296 l 1
 255 305 217 341 217 341 c 1
 187 325 180 279 184 260 c 1
 184 260 202 271 221 271 c 0
 288 269 287 171 221 171 c 0
 164 171 149 228 149 276 c 0
 149 312 171 368 217 389 c 1
 264 344 l 1
 312 390 l 1
 372 389 386 343 386 302 c 2
 386 -115 l 1
221 192 m 0
 259 192 259 249 221 249 c 0
 183 249 183 192 221 192 c 0
EndSplineSet
EndChar
StartChar: uni0E47
Encoding: 231 3655 196
Width: 0
Flags: HW
HStem: 493 36
VStem: -100 51<669 669>
Fore
-49 669 m 1
 -49 669 l 0
 -49 598 -96 565 -195 581 c 0
 -243 589 -271 588 -279 545 c 0
 -283 525 -277 503 -271 496 c 1
 -271 496 -270 530 -231 530 c 0
 -191 530 -179 490 -160 481 c 1
 -160 481 -163 487 -163 492 c 0
 -163 561 -60 560 -60 490 c 0
 -60 453 -89 434 -112 435 c 0
 -189 437 -192 494 -229 493 c 0
 -260 492 -258 446 -248 435 c 1
 -274 435 l 1
 -304 459 -329 511 -315 563 c 0
 -307 593 -284 627 -186 614 c 0
 -126 606 -96 609 -100 669 c 1
 -49 669 l 1
-85 490 m 0
 -85 527 -140 527 -140 490 c 0
 -140 455 -85 455 -85 490 c 0
EndSplineSet
EndChar
StartChar: uni0E48
Encoding: 232 3656 197
Width: 0
Flags: HW
HStem: 657 131<-108 -73 -108 -108>
VStem: -112 42
Fore
-65 788 m 1
 -73 657 l 1
 -108 657 l 1
 -116 788 l 1
 -65 788 l 1
EndSplineSet
EndChar
StartChar: uni0E49
Encoding: 233 3657 198
Width: 0
Flags: HW
Fore
87 790 m 1
 87 790 l 0
 73 677 -42 619 -158 637 c 1
 -158 656 l 1
 -152 658 -127 672 -118 694 c 1
 -118 694 l 1
 -118 694 -122 692 -128 692 c 0
 -198 692 -197 793 -128 793 c 0
 -79 793 -76 744 -76 744 c 1
 -76 691 -106 665 -106 665 c 1
 -109 662 l 1
 -48 667 32 708 35 790 c 1
 87 790 l 1
-128 716 m 0
 -92 716 -92 771 -128 771 c 0
 -167 771 -167 716 -128 716 c 0
EndSplineSet
EndChar
StartChar: uni0E4A
Encoding: 234 3658 199
Width: 0
Flags: HW
HStem: 762 36
VStem: -184 32 -95 20<677 700.5>
Fore
79 800 m 1
 79 800 l 0
 84 710 34 657 -45 646 c 1
 -45 662 l 1
 -9 684 -13 754 -46 763 c 1
 -83 738 l 1
 -118 763 l 1
 -142 763 -160 735 -156 710 c 1
 -156 710 -150 731 -118 731 c 0
 -93 731 -75 711 -75 690 c 0
 -75 664 -90 644 -118 644 c 0
 -159 644 -184 679 -184 726 c 0
 -184 759 -152 798 -118 798 c 1
 -118 798 -83 768 -82 768 c 2
 -47 797 l 1
 28 778 15 712 1 684 c 1
 38 709 48 753 37 800 c 1
 79 800 l 1
-95 687 m 0
 -95 720 -144 720 -144 687 c 0
 -144 655 -95 655 -95 687 c 0
EndSplineSet
EndChar
StartChar: uni0E4B
Encoding: 235 3659 200
Width: 0
Flags: HW
Fore
-6 704 m 1
 -74 703 l 1
 -75 646 l 1
 -112 646 l 1
 -113 703 l 1
 -183 704 l 1
 -183 741 l 1
 -114 742 l 1
 -115 800 l 1
 -72 800 l 1
 -73 742 l 1
 -6 741 l 1
 -6 704 l 1
EndSplineSet
EndChar
StartChar: uni0E4C
Encoding: 236 3660 201
Width: 0
Flags: HW
HStem: 587 20
Fore
30 744 m 1
 30 744 l 0
 8 679 -93 678 -88 676 c 0
 -45 657 -57 587 -110 587 c 0
 -142 587 -161 607 -161 635 c 0
 -161 674 -129 696 -83 704 c 0
 -66 707 -12 728 -10 763 c 1
 30 744 l 1
-111 606 m 0
 -74 606 -74 660 -111 660 c 0
 -147 660 -147 606 -111 606 c 0
EndSplineSet
EndChar
StartChar: uni0E4D
Encoding: 237 3661 202
Width: 0
Flags: HW
Fore
-92 435 m 0
 -92 435 l 0
 -175 435 -175 559 -92 559 c 0
 -10 559 -10 435 -92 435 c 0
-59 496 m 0
 -59 515 -74 529 -92 529 c 0
 -111 529 -125 515 -125 496 c 0
 -125 478 -111 463 -92 463 c 0
 -74 463 -59 478 -59 496 c 0
EndSplineSet
EndChar
StartChar: uni0E4E
Encoding: 238 3662 203
Width: 0
Flags: HW
Fore
59 563 m 2
 3 601 -27 561 -13 531 c 1
 -13 531 -10 524 -12 521 c 0
 -17 513 -37 494 -47 496 c 0
 -49 496 -52 498 -52 498 c 1
 -94 541 -147 498 -116 453 c 1
 -116 453 -110 446 -114 443 c 0
 -120 439 -138 426 -144 424 c 0
 -148 423 -152 428 -152 428 c 1
 -210 496 -115 588 -43 525 c 1
 -42 526 l 1
 -72 591 16 638 77 586 c 1
 77 586 79 584 78 581 c 0
 76 574 70 561 62 562 c 0
 61 562 59 563 59 563 c 2
EndSplineSet
EndChar
StartChar: uni0E4F
Encoding: 239 3663 204
Width: 480
Flags: HW
HStem: -1 36 107 28<225.5 254.5> 251 28 351 36<195.5 283.5>
VStem: 15 66<149.5 236.5> 152 51 276 51 398 66<193 193>
Fore
464 193 m 0
 464 193 l 0
 464 66 345 -1 240 -1 c 0
 132 -1 15 66 15 193 c 0
 15 320 132 387 240 387 c 0
 345 387 464 320 464 193 c 0
398 193 m 0
 398 193 l 0
 398 280 327 351 240 351 c 0
 151 351 81 280 81 193 c 0
 81 106 151 34 240 34 c 0
 327 34 398 106 398 193 c 0
327 193 m 0
 327 193 l 0
 327 142 286 107 240 107 c 0
 191 107 152 142 152 193 c 0
 152 245 191 279 240 279 c 0
 286 279 327 245 327 193 c 0
281 193 m 0
 281 222 269 249 240 249 c 0
 211 249 199 222 199 193 c 0
 199 164 211 135 240 135 c 0
 269 135 281 164 281 193 c 0
EndSplineSet
EndChar
StartChar: uni0E50
Encoding: 240 3664 205
Width: 420
Flags: HW
HStem: -5 28 281 28
VStem: 34 51 332 51
Fore
383 151 m 0
 383 151 l 0
 383 60 305 -5 210 -5 c 0
 112 -5 34 58 34 152 c 0
 34 243 112 309 210 309 c 0
 305 309 383 243 383 151 c 0
331 152 m 0
 331 219 281 280 210 280 c 0
 137 280 86 222 86 151 c 0
 86 82 140 24 210 24 c 0
 280 24 331 86 331 152 c 0
EndSplineSet
EndChar
StartChar: uni0E51
Encoding: 241 3665 206
Width: 420
Flags: HW
HStem: 281 28
VStem: 33 51 141 32 225 42<101 119> 336 51
Fore
387 151 m 0
 387 151 l 0
 387 68 338 0 260 -19 c 1
 238 -9 l 1
 322 21 335 95 335 152 c 0
 335 230 277 280 208 280 c 0
 139 280 85 229 85 151 c 0
 85 5 219 0 229 75 c 1
 229 75 222 62 196 62 c 0
 162 62 141 89 141 118 c 0
 141 150 164 175 199 175 c 0
 245 175 267 139 267 99 c 0
 267 -48 33 -42 33 151 c 0
 33 251 115 309 208 309 c 0
 299 309 387 250 387 151 c 0
225 119 m 0
 225 155 171 155 171 119 c 0
 171 83 225 83 225 119 c 0
EndSplineSet
EndChar
StartChar: uni0E52
Encoding: 242 3666 207
Width: 420
Flags: HW
HStem: 0 28
VStem: 31 51 340 51
Fore
391 151 m 0
 391 151 l 0
 391 117 391 95 386 68 c 0
 379 30 371 0 307 0 c 2
 126 0 l 2
 60 0 31 35 31 82 c 2
 31 359 l 2
 31 419 23 432 23 432 c 1
 16 458 35 453 44 447 c 1
 69 417 l 1
 69 417 80 405 80 359 c 2
 80 81 l 2
 80 48 103 29 129 29 c 2
 303 29 l 2
 329 29 336 46 339 62 c 0
 345 108 343 104 343 152 c 0
 343 207 339 262 310 268 c 0
 289 272 270 228 266 203 c 0
 262 179 236 176 231 204 c 0
 227 229 208 272 187 268 c 0
 164 263 149 213 160 153 c 1
 160 153 168 165 189 165 c 0
 263 163 260 54 189 54 c 0
 146 54 127 85 120 120 c 0
 97 230 130 309 184 307 c 0
 224 306 244 261 247 237 c 1
 250 237 l 1
 254 261 275 306 315 307 c 0
 373 308 391 229 391 151 c 0
215 108 m 0
 215 145 160 145 160 108 c 0
 160 73 215 73 215 108 c 0
EndSplineSet
EndChar
StartChar: uni0E53
Encoding: 243 3667 208
Width: 420
Flags: HW
HStem: -5 20 272 36
VStem: 153 32 197 32<128 133.5 133.5 154 149.5 155>
Fore
278 268 m 0
 278 268 l 0
 246 264 229 206 229 155 c 0
 229 145 229 139 229 128 c 0
 229 104 197 105 197 128 c 0
 197 138 197 145 197 154 c 0
 197 221 169 268 138 268 c 0
 107 268 63 229 89 89 c 1
 89 89 102 106 126 106 c 0
 159 106 181 80 181 50 c 0
 181 20 159 -5 126 -5 c 0
 88 -5 61 21 49 56 c 0
 17 146 19 308 137 308 c 0
 189 308 211 241 211 241 c 1
 212 241 l 1
 228 293 255 308 287 308 c 0
 393 308 411 165 366 7 c 1
 338 0 l 2
 329 -1 315 -5 320 16 c 0
 361 186 331 274 278 268 c 0
153 49 m 0
 153 86 98 86 98 49 c 0
 98 13 153 13 153 49 c 0
EndSplineSet
EndChar
StartChar: uni0E54
Encoding: 244 3668 209
Width: 420
Flags: HW
HStem: -3 28 277 28 429 20<347 347>
VStem: 36 51 168 42 264 32 348 51
Fore
267 167 m 0
 267 167 l 0
 267 203 212 203 212 167 c 0
 212 130 267 130 267 167 c 0
365 30 m 0
 369 30 380 32 384 32 c 0
 398 32 390 19 390 19 c 1
 379 0 l 1
 379 0 321 0 263 2 c 0
 236 3 215 -1 188 -3 c 0
 113 -7 36 51 36 158 c 0
 36 259 111 307 190 307 c 0
 215 307 221 305 239 305 c 0
 300 305 347 349 347 449 c 1
 392 436 l 2
 396 435 400 432 399 423 c 0
 393 338 339 274 243 274 c 0
 231 274 210 276 198 276 c 0
 120 276 89 214 88 158 c 0
 88 87 118 23 203 29 c 0
 212 30 218 31 228 31 c 0
 242 31 258 29 258 29 c 1
 216 45 168 91 168 153 c 0
 168 201 206 227 243 224 c 0
 276 221 296 198 296 164 c 0
 296 121 246 95 212 120 c 1
 212 95 291 24 365 30 c 0
EndSplineSet
EndChar
StartChar: uni0E55
Encoding: 245 3669 210
Width: 420
Flags: HW
HStem: -3 28 429 20<346 346>
VStem: 36 51 155 32 261 32 348 51
Fore
267 167 m 0
 267 167 l 0
 267 203 212 203 212 167 c 0
 212 130 267 130 267 167 c 0
262 330 m 0
 262 330 l 0
 262 382 185 382 185 330 c 0
 185 318 189 311 193 306 c 1
 208 304 239 304 254 307 c 1
 259 313 262 320 262 330 c 0
346 449 m 1
 392 436 l 2
 396 435 400 432 399 423 c 0
 393 335 334 275 248 274 c 0
 235 274 210 275 198 275 c 0
 120 275 89 214 88 158 c 0
 88 87 118 23 203 29 c 0
 212 30 218 31 228 31 c 0
 242 31 259 28 259 28 c 1
 218 44 168 91 168 153 c 0
 168 201 206 227 243 224 c 0
 276 221 296 198 296 164 c 0
 296 121 246 95 212 120 c 1
 212 95 291 24 365 30 c 0
 369 30 380 32 384 32 c 0
 398 32 390 19 390 19 c 1
 379 0 l 1
 379 0 321 0 263 2 c 0
 236 3 215 -1 188 -3 c 0
 113 -7 36 51 36 158 c 0
 36 254 103 297 162 305 c 1
 158 312 155 320 155 329 c 0
 155 371 185 398 224 398 c 0
 265 398 293 370 293 329 c 0
 293 323 292 319 289 316 c 1
 311 331 348 360 346 449 c 1
EndSplineSet
EndChar
StartChar: uni0E56
Encoding: 246 3670 211
Width: 420
Flags: HW
HStem: -5 28 281 28
VStem: 76 42 153 32 328 51
Fore
199 309 m 0
 199 309 l 0
 301 309 379 248 379 150 c 0
 379 61 320 -5 202 -5 c 0
 14 -5 19 182 125 182 c 0
 159 182 181 155 181 124 c 0
 181 95 162 68 126 68 c 0
 108 68 100 78 100 78 c 1
 106 47 155 24 202 24 c 0
 274 24 327 77 327 150 c 0
 327 227 269 280 199 280 c 0
 171 280 132 273 104 256 c 0
 97 251 74 256 76 283 c 1
 76 354 62 397 35 439 c 0
 33 443 31 450 40 450 c 2
 90 450 l 1
 101 432 124 367 119 295 c 1
 138 305 171 309 199 309 c 0
153 125 m 0
 153 161 98 161 98 125 c 0
 98 88 153 88 153 125 c 0
EndSplineSet
EndChar
StartChar: uni0E57
Encoding: 247 3671 212
Width: 420
Flags: HW
HStem: -5 20 271 36
VStem: 162 32
Fore
382 437 m 0
 382 437 l 0
 436 280 403 28 299 -1 c 1
 299 -1 257 -12 262 14 c 1
 262 14 273 63 279 95 c 0
 302 231 269 272 244 272 c 0
 217 272 201 238 196 212 c 0
 194 203 193 187 193 179 c 0
 190 156 165 155 162 179 c 0
 162 189 160 204 158 213 c 0
 153 241 136 272 112 272 c 0
 90 272 48 239 75 90 c 1
 75 90 89 106 114 106 c 0
 146 106 168 81 168 51 c 0
 168 21 147 -5 114 -5 c 0
 71 -5 46 25 36 61 c 0
 1 183 21 303 113 307 c 0
 140 308 169 278 176 236 c 1
 179 236 l 1
 184 278 217 308 244 307 c 0
 329 303 355 185 300 34 c 1
 300 34 323 44 334 71 c 0
 373 162 384 299 335 417 c 1
 359 447 l 2
 366 457 374 462 382 437 c 0
139 49 m 0
 139 86 85 86 85 49 c 0
 85 13 139 13 139 49 c 0
EndSplineSet
EndChar
StartChar: uni0E58
Encoding: 248 3672 213
Width: 420
Flags: HW
HStem: -4 20 188 28 274 28 429 20<337 337>
VStem: 27 51 266 32<153 169> 340 51
Fore
389 156 m 0
 389 156 l 0
 397 46 344 -2 296 -2 c 0
 261 -2 197 4 185 99 c 1
 169 87 157 31 153 -4 c 1
 111 -5 26 45 27 158 c 0
 28 259 100 308 179 308 c 0
 198 308 222 305 237 305 c 0
 293 305 339 353 337 449 c 1
 383 435 l 2
 388 434 392 431 391 422 c 0
 384 338 325 274 248 274 c 0
 229 274 213 276 197 276 c 0
 115 276 79 220 79 157 c 0
 79 104 93 62 128 40 c 1
 128 40 139 125 186 143 c 1
 214 139 l 1
 214 1 341 0 343 108 c 1
 294 93 266 130 266 160 c 0
 266 197 292 219 325 219 c 0
 372 219 387 185 389 156 c 0
352 161 m 0
 352 177 340 188 325 188 c 0
 309 188 298 177 298 161 c 0
 298 145 309 134 325 134 c 0
 340 134 352 145 352 161 c 0
EndSplineSet
EndChar
StartChar: uni0E59
Encoding: 249 3673 214
Width: 420
Flags: HW
HStem: -6 28 75 28 228 36 268 36 427 20<356 356>
VStem: 183 32
Fore
183 48 m 0
 183 48 l 0
 183 63 170 75 156 75 c 0
 141 75 129 63 129 48 c 0
 129 33 141 21 156 21 c 0
 170 21 183 33 183 48 c 0
236 236 m 1
 239 232 251 213 255 207 c 0
 305 124 347 26 347 26 c 2
 363 -5 316 -19 300 13 c 2
 300 13 252 116 216 179 c 0
 172 254 132 286 93 259 c 0
 57 235 72 133 115 81 c 1
 115 81 127 104 157 104 c 0
 189 104 211 80 211 48 c 0
 211 20 187 -6 156 -6 c 0
 130 -6 105 7 83 33 c 0
 20 109 3 240 72 288 c 0
 89 300 151 323 207 265 c 1
 207 286 229 304 251 304 c 0
 300 305 300 264 329 264 c 0
 361 264 376 326 356 447 c 1
 409 432 l 1
 414 432 415 429 415 423 c 0
 422 292 392 225 332 225 c 0
 287 225 282 268 257 269 c 0
 239 270 233 253 236 236 c 1
EndSplineSet
EndChar
StartChar: uni0E5A
Encoding: 250 3674 215
Width: 476
Flags: HW
HStem: 0 20 367 20<48.5 90.5>
VStem: 226 51<0 303 303 303 378.5 385> 351 51<0 385>
Fore
277 0 m 1
 226 0 l 1
 226 303 l 1
 171 249 72 267 46 285 c 0
 -2 319 21 387 76 387 c 0
 105 387 125 372 132 347 c 0
 140 320 124 301 124 301 c 1
 218 294 226 372 226 385 c 1
 277 385 l 1
 277 0 l 1
78 303 m 0
 78 303 l 0
 117 303 117 362 78 362 c 0
 38 362 38 303 78 303 c 0
351 385 m 1
 402 385 l 1
 402 0 l 1
 351 0 l 1
 351 385 l 1
EndSplineSet
EndChar
StartChar: uni0E5B
Encoding: 251 3675 216
Width: 960
Flags: HW
HStem: 102 28 137 28 215 20<877 877> 258 20<191 220.5>
VStem: 37 59 153 32 223 32 298 51
Fore
943 218 m 1
 876 216 l 0
 866 216 861 215 859 205 c 0
 852 169 808 170 804 210 c 0
 802 233 780 226 784 212 c 0
 795 171 773 133 729 125 c 0
 725 124 711 124 713 132 c 0
 725 183 722 245 687 283 c 1
 685 283 l 1
 706 246 705 142 644 111 c 1
 644 111 631 102 617 102 c 0
 607 102 611 114 611 114 c 1
 621 181 606 278 569 308 c 1
 567 308 l 1
 593 254 595 122 504 80 c 1
 504 80 493 76 489 75 c 0
 482 73 474 79 475 85 c 0
 481 122 476 272 414 345 c 1
 412 345 l 1
 434 303 442 238 434 191 c 0
 426 142 379 43 254 32 c 0
 142 22 37 101 37 220 c 0
 37 356 130 415 220 403 c 0
 301 392 346 341 346 255 c 0
 346 201 305 137 240 137 c 0
 191 137 153 171 153 226 c 0
 153 257 176 278 206 278 c 0
 235 278 257 258 257 227 c 0
 257 194 230 182 217 182 c 2
 206 183 l 1
 211 172 219 164 241 164 c 0
 269 164 298 197 298 254 c 0
 298 305 281 364 219 373 c 0
 154 382 97 317 97 219 c 0
 97 125 172 45 254 59 c 0
 386 81 407 266 376 365 c 0
 371 382 390 386 400 382 c 0
 420 374 427 367 432 363 c 0
 513 302 525 203 502 109 c 1
 505 109 l 1
 539 140 555 248 539 328 c 1
 539 328 536 346 555 340 c 0
 566 337 576 331 576 331 c 2
 660 292 647 185 633 129 c 1
 635 129 l 1
 665 162 668 256 662 302 c 1
 662 302 658 316 676 311 c 0
 686 308 692 303 692 303 c 2
 756 271 759 206 736 146 c 1
 738 146 l 2
 753 154 763 184 764 214 c 0
 765 255 820 255 823 215 c 0
 825 195 840 195 843 214 c 0
 847 237 858 236 877 235 c 2
 943 233 l 1
 943 218 l 1
223 227 m 0
 223 240 221 261 206 261 c 0
 192 261 187 242 187 227 c 0
 187 212 193 199 205 199 c 0
 217 199 223 211 223 227 c 0
EndSplineSet
EndChar
StartChar: uni0E38.low
Encoding: 252 63256 217
Width: 0
Flags: HW
VStem: -105 51
Fore
-54 -320 m 1
 -99 -320 l 1
 -101 -242 l 1
 -103 -242 -109 -246 -119 -246 c 0
 -177 -244 -177 -163 -119 -160 c 0
 -83 -158 -60 -172 -54 -210 c 1
 -54 -320 l 1
-119 -226 m 0
 -88 -226 -88 -179 -119 -179 c 0
 -150 -179 -150 -226 -119 -226 c 0
EndSplineSet
EndChar
StartChar: uni0E39.low
Encoding: 253 63257 218
Width: 0
Flags: HW
HStem: -321 20 -242 20<-192 -180> -180 20<-212 -167>
VStem: -165 32 -96 42
Fore
-54 -266 m 1
 -54 -266 l 0
 -57 -296 -73 -321 -108 -321 c 0
 -143 -321 -164 -302 -164 -274 c 1
 -166 -235 l 1
 -169 -236 -173 -239 -184 -239 c 0
 -240 -238 -240 -160 -184 -160 c 0
 -150 -160 -137 -181 -138 -210 c 1
 -138 -281 l 1
 -140 -292 -130 -302 -118 -302 c 0
 -106 -302 -100 -292 -99 -281 c 1
 -99 -163 l 1
 -54 -163 l 1
 -54 -266 l 1
-164 -200 m 0
 -164 -187 -174 -178 -186 -178 c 0
 -198 -178 -209 -187 -209 -200 c 0
 -209 -211 -198 -222 -186 -222 c 0
 -174 -222 -164 -211 -164 -200 c 0
EndSplineSet
EndChar
StartChar: uni0E3A.low
Encoding: 254 63258 219
Width: 0
Flags: HW
Fore
-81 -207 m 0
 -117 -207 -117 -152 -81 -152 c 0
 -45 -152 -45 -207 -81 -207 c 0
EndSplineSet
EndChar
StartChar: multiply
Encoding: 256 215 221
Width: 403
Flags: HW
Fore
342 75 m 1
 312 44 l 1
 201 155 l 1
 90 45 l 1
 59 76 l 1
 170 186 l 1
 60 297 l 1
 90 327 l 1
 201 217 l 1
 311 327 l 1
 341 297 l 1
 232 186 l 1
 342 75 l 1
EndSplineSet
EndChar
StartChar: divide
Encoding: 257 247 222
Width: 356
Flags: HMW
HStem: 9 67 146 36 254 67
VStem: 144 66
Fore
212 286 m 0
 212 286 l 0
 212 266 197 252 178 252 c 0
 159 252 144 269 144 286 c 0
 144 305 158 321 178 321 c 0
 197 321 212 307 212 286 c 0
335 146 m 1
 21 146 l 1
 21 183 l 1
 335 183 l 1
 335 146 l 1
212 43 m 0
 212 22 197 9 178 9 c 0
 159 9 144 24 144 43 c 0
 144 60 158 77 178 77 c 0
 197 77 212 62 212 43 c 0
EndSplineSet
EndChar
StartChar: registered
Encoding: 258 174 223
Width: 479
Flags: HW
HStem: -7 28 100 13 203 13 316 13 397 28
VStem: 29 32 171 42 283 42 419 32
Fore
451 210 m 0
 451 210 l 0
 451 90 357 -7 241 -7 c 0
 123 -7 29 90 29 210 c 0
 29 328 123 425 241 425 c 0
 357 425 451 328 451 210 c 0
421 210 m 0
 421 210 l 0
 421 310 339 398 241 398 c 0
 141 398 59 310 59 210 c 0
 59 107 141 20 241 20 c 0
 339 20 421 107 421 210 c 0
352 100 m 1
 312 100 l 0
 294 100 285 126 274 150 c 0
 249 199 257 206 210 205 c 1
 210 129 l 2
 210 114 211 110 227 110 c 2
 236 109 l 1
 236 100 l 1
 144 100 l 1
 144 109 l 1
 150 109 l 2
 166 110 171 110 171 128 c 2
 171 301 l 2
 171 318 169 320 151 320 c 2
 145 320 l 1
 145 329 l 1
 248 329 l 2
 299 329 325 313 325 275 c 0
 325 240 299 219 267 214 c 1
 267 210 l 1
 292 205 303 178 313 157 c 0
 325 134 330 110 352 109 c 1
 352 100 l 1
286 270 m 0
 286 304 267 320 234 320 c 2
 221 319 l 2
 209 319 210 304 210 294 c 2
 210 218 l 1
 223 216 l 1
 258 216 286 227 286 270 c 0
EndSplineSet
EndChar
